<?xml version="1.0" encoding="UTF-8" standalone="no"?><!DOCTYPE svg PUBLIC "-//W3C//DTD SVG 1.1//EN" "http://www.w3.org/Graphics/SVG/1.1/DTD/svg11.dtd"><svg width="100%" height="100%" viewBox="0 0 750 1050" version="1.1" xmlns="http://www.w3.org/2000/svg" xmlns:xlink="http://www.w3.org/1999/xlink" xml:space="preserve" xmlns:serif="http://www.serif.com/" style="fill-rule:evenodd;clip-rule:evenodd;stroke-linecap:round;stroke-linejoin:round;stroke-miterlimit:1.5;"><g><g><g><path d="M264.693,67.078l-154.466,124.068l0,588.872l154.466,-197.478l-0,-515.462Z" style="fill:#fff;stroke:#000;stroke-width:4.25px;"/></g><g><rect x="264.693" y="67.079" width="230.781" height="515.462" style="fill:#fff;stroke:#000;stroke-width:4.25px;"/></g><g><rect x="110.227" y="191.074" width="263.681" height="588.944" style="fill:#bdbdbd;stroke:#000;stroke-width:4.25px;"/></g><g><path d="M373.908,191.146l121.567,-124.068l0,515.462l-121.567,197.478l-0,-588.872Z" style="fill:#929292;stroke:#000;stroke-width:4.25px;"/></g><g><path d="M264.693,67.078l-154.466,123.996l263.681,0.072l121.567,-124.068l-230.782,0Z" style="fill:#e5e5e5;stroke:#000;stroke-width:4.25px;"/></g><g><path d="M264.72,67.081l232.1,-0" style="fill:none;stroke:#5abc52;stroke-width:12.04px;"/></g><g><path d="M111.477,190.886l262.429,0.262" style="fill:none;stroke:#5abc52;stroke-width:12.04px;"/></g><g><path d="M111.477,779.344l262.429,0.261" style="fill:none;stroke:#5abc52;stroke-width:12.04px;"/></g><g><path d="M110.228,191.145l-0,588.936" style="fill:none;stroke:#528ebc;stroke-width:12.04px;"/></g><g><path d="M374.921,191.145l-0,588.936" style="fill:none;stroke:#528ebc;stroke-width:12.04px;"/></g><g><path d="M496.819,67.078l-0,513.475" style="fill:none;stroke:#528ebc;stroke-width:12.04px;"/></g><g><path d="M264.724,67.078l-154.497,124.068" style="fill:none;stroke:#9e3f3f;stroke-width:12.04px;"/></g><g><path d="M495.475,67.078l-121.567,124.068" style="fill:none;stroke:#9e3f3f;stroke-width:12.04px;"/></g><g><path d="M496.818,580.555l-122.91,199.463" style="fill:none;stroke:#9e3f3f;stroke-width:12.04px;"/></g></g><path d="M103.666,187.495l159.042,-126.48l240.041,-0.303l0.403,523.763l-127.012,203.405l-272.474,-0.064l-0,-600.321Z" style="fill:#fff;fill-opacity:0.6;"/></g><path d="M503.152,70.99l0,531.724l197.199,143.971l0,-531.723l-197.199,-143.972Z" style="fill:#ff9c00;fill-opacity:0.2;"/><g><g><g><path d="M327.243,112.029l-154.465,124.067l-0,588.873l154.465,-197.478l0,-515.462Z" style="fill:#fff;stroke:#000;stroke-width:4.25px;"/></g><g><rect x="327.243" y="112.03" width="230.781" height="515.462" style="fill:#fff;stroke:#000;stroke-width:4.25px;"/></g><g><rect x="172.778" y="236.024" width="263.681" height="588.944" style="fill:#bdbdbd;stroke:#000;stroke-width:4.25px;"/></g><g><path d="M436.458,236.096l121.568,-124.067l-0,515.462l-121.568,197.478l0,-588.873Z" style="fill:#929292;stroke:#000;stroke-width:4.25px;"/></g><g><path d="M327.243,112.029l-154.465,123.995l263.68,0.072l121.568,-124.067l-230.783,0Z" style="fill:#e5e5e5;stroke:#000;stroke-width:4.25px;"/></g><g><path d="M327.271,112.031l232.1,0" style="fill:none;stroke:#5abc52;stroke-width:12.04px;"/></g><g><path d="M174.028,235.837l262.429,0.261" style="fill:none;stroke:#5abc52;stroke-width:12.04px;"/></g><g><path d="M174.028,824.294l262.429,0.262" style="fill:none;stroke:#5abc52;stroke-width:12.04px;"/></g><g><path d="M172.778,236.096l0,588.936" style="fill:none;stroke:#528ebc;stroke-width:12.04px;"/></g><g><path d="M437.471,236.096l0,588.936" style="fill:none;stroke:#528ebc;stroke-width:12.04px;"/></g><g><path d="M559.369,112.029l0,513.475" style="fill:none;stroke:#528ebc;stroke-width:12.04px;"/></g><g><path d="M327.274,112.029l-154.496,124.067" style="fill:none;stroke:#9e3f3f;stroke-width:12.04px;"/></g><g><path d="M558.026,112.029l-121.568,124.067" style="fill:none;stroke:#9e3f3f;stroke-width:12.04px;"/></g><g><path d="M559.368,625.506l-122.91,199.463" style="fill:none;stroke:#9e3f3f;stroke-width:12.04px;"/></g></g><path d="M166.216,232.445l159.042,-126.479l240.041,-0.303l0.404,523.763l-127.012,203.405l-272.475,-0.065l0,-600.321Z" style="fill:#fff;fill-opacity:0.4;"/></g><g><g><g><path d="M382.806,168.243l-154.466,124.068l0,588.872l154.466,-197.478l-0,-515.462Z" style="fill:#fff;stroke:#000;stroke-width:4.25px;"/></g><g><rect x="382.806" y="168.244" width="230.781" height="515.462" style="fill:#fff;stroke:#000;stroke-width:4.25px;"/></g><g><rect x="228.34" y="292.238" width="263.681" height="588.944" style="fill:#bdbdbd;stroke:#000;stroke-width:4.25px;"/></g><g><path d="M492.021,292.311l121.567,-124.068l0,515.462l-121.567,197.478l0,-588.872Z" style="fill:#929292;stroke:#000;stroke-width:4.25px;"/></g><g><path d="M382.806,168.243l-154.466,123.995l263.681,0.073l121.567,-124.068l-230.782,0Z" style="fill:#e5e5e5;stroke:#000;stroke-width:4.25px;"/></g><g><path d="M382.833,168.245l232.1,0" style="fill:none;stroke:#5abc52;stroke-width:12.04px;"/></g><g><path d="M229.59,292.051l262.429,0.262" style="fill:none;stroke:#5abc52;stroke-width:12.04px;"/></g><g><path d="M229.59,880.508l262.429,0.262" style="fill:none;stroke:#5abc52;stroke-width:12.04px;"/></g><g><path d="M228.341,292.31l-0,588.936" style="fill:none;stroke:#528ebc;stroke-width:12.04px;"/></g><g><path d="M493.034,292.31l-0,588.936" style="fill:none;stroke:#528ebc;stroke-width:12.04px;"/></g><g><path d="M614.932,168.243l-0,513.475" style="fill:none;stroke:#528ebc;stroke-width:12.04px;"/></g><g><path d="M382.837,168.243l-154.497,124.068" style="fill:none;stroke:#9e3f3f;stroke-width:12.04px;"/></g><g><path d="M613.588,168.243l-121.567,124.068" style="fill:none;stroke:#9e3f3f;stroke-width:12.04px;"/></g><g><path d="M614.931,681.72l-122.91,199.463" style="fill:none;stroke:#9e3f3f;stroke-width:12.04px;"/></g></g><path d="M221.779,288.66l159.042,-126.48l240.041,-0.303l0.403,523.763l-127.012,203.405l-272.474,-0.065l-0,-600.32Z" style="fill:#fff;fill-opacity:0.2;"/></g><g><g><g><path d="M464.436,229.702l-154.466,124.068l0,588.872l154.466,-197.478l-0,-515.462Z" style="fill:#fff;stroke:#000;stroke-width:4.25px;"/></g><g><rect x="464.436" y="229.703" width="230.781" height="515.462" style="fill:#fff;stroke:#000;stroke-width:4.25px;"/></g><g><rect x="309.97" y="353.697" width="263.681" height="588.944" style="fill:#bdbdbd;stroke:#000;stroke-width:4.25px;"/></g><g><path d="M573.651,353.77l121.567,-124.068l0,515.462l-121.567,197.478l0,-588.872Z" style="fill:#929292;stroke:#000;stroke-width:4.25px;"/></g><g><path d="M464.436,229.702l-154.466,123.995l263.681,0.073l121.567,-124.068l-230.782,0Z" style="fill:#e5e5e5;stroke:#000;stroke-width:4.25px;"/></g><g><path d="M464.463,229.704l232.101,0" style="fill:none;stroke:#5abc52;stroke-width:12.04px;"/></g><g><path d="M311.22,353.51l262.429,0.262" style="fill:none;stroke:#5abc52;stroke-width:12.04px;"/></g><g><path d="M311.22,941.967l262.429,0.262" style="fill:none;stroke:#5abc52;stroke-width:12.04px;"/></g><g><path d="M309.971,353.769l-0,588.936" style="fill:none;stroke:#528ebc;stroke-width:12.04px;"/></g><g><path d="M574.664,353.769l-0,588.936" style="fill:none;stroke:#528ebc;stroke-width:12.04px;"/></g><g><path d="M696.562,229.702l-0,513.475" style="fill:none;stroke:#528ebc;stroke-width:12.04px;"/></g><g><path d="M464.467,229.702l-154.497,124.068" style="fill:none;stroke:#9e3f3f;stroke-width:12.04px;"/></g><g><path d="M695.218,229.702l-121.567,124.068" style="fill:none;stroke:#9e3f3f;stroke-width:12.04px;"/></g><g><path d="M696.561,743.179l-122.91,199.463" style="fill:none;stroke:#9e3f3f;stroke-width:12.04px;"/></g></g><path d="M303.409,350.119l159.042,-126.48l240.041,-0.303l0.403,523.763l-127.011,203.405l-272.475,-0.065l-0,-600.32Z" style="fill:#fff;fill-opacity:0;"/></g><g><text x="278.12px" y="1018.78px" style="font-family:'ArialMT', 'Arial', sans-serif;font-size:71.615px;fill:#216b1b;">Receptors</text></g><g transform="matrix(0.778066,-0.628183,0.628183,0.778066,-128.053,66.0816)"><text x="29.495px" y="214.267px" style="font-family:'ArialMT', 'Arial', sans-serif;font-size:71.615px;fill:#741818;">Antigens</text></g><g><g transform="matrix(6.12323e-17,-1,1,6.12323e-17,-591.449,734.604)"><text x="71.577px" y="663.026px" style="font-family:'ArialMT', 'Arial', sans-serif;font-size:71.615px;fill:#204b6c;">Subjects</text></g></g><path d="M106.21,194.204l197.199,159.442" style="fill:none;stroke:#ff00be;stroke-width:12.5px;"/><path d="M106.21,783.062l197.199,159.442" style="fill:none;stroke:#ff00be;stroke-width:12.5px;"/><path d="M503.152,63.894l197.199,159.442" style="fill:none;stroke:#ff00be;stroke-width:12.5px;"/><g transform="matrix(0.772118,0.635479,-0.635479,0.772118,-479.788,-60.8265)"><text x="876.291px" y="-556.042px" style="font-family:'ArialMT', 'Arial', sans-serif;font-size:66.667px;fill:#ff00be;">W<tspan x="938.009px 975.086px " y="-556.042px -556.042px ">ee</tspan>ks</text></g><path d="M106.21,202.204l-0,588.858l197.199,159.442l-0,-588.858l-197.199,-159.442Z" style="fill:#ff9c00;fill-opacity:0.2;"/></svg>