<?xml version="1.0" encoding="UTF-8" standalone="no"?><!DOCTYPE svg PUBLIC "-//W3C//DTD SVG 1.1//EN" "http://www.w3.org/Graphics/SVG/1.1/DTD/svg11.dtd"><svg width="100%" height="100%" viewBox="0 0 780 1080" version="1.1" xmlns="http://www.w3.org/2000/svg" xmlns:xlink="http://www.w3.org/1999/xlink" xml:space="preserve" xmlns:serif="http://www.serif.com/" style="fill-rule:evenodd;clip-rule:evenodd;stroke-linecap:round;stroke-linejoin:round;stroke-miterlimit:1.5;"><g><g><g><path d="M279.693,115.912l-154.466,124.067l0,588.872l154.466,-197.477l-0,-515.462Z" style="fill:#fff;stroke:#000;stroke-width:4.25px;"/></g><g><rect x="279.693" y="115.912" width="230.781" height="515.462" style="fill:#fff;stroke:#000;stroke-width:4.25px;"/></g><g><rect x="125.227" y="239.907" width="263.681" height="588.944" style="fill:#bdbdbd;stroke:#000;stroke-width:4.25px;"/></g><g><path d="M388.908,239.979l121.567,-124.067l0,515.462l-121.567,197.477l-0,-588.872Z" style="fill:#929292;stroke:#000;stroke-width:4.25px;"/></g><g><path d="M279.693,115.912l-154.466,123.995l263.681,0.072l121.567,-124.067l-230.782,-0Z" style="fill:#e5e5e5;stroke:#000;stroke-width:4.25px;"/></g><g><path d="M279.72,115.914l232.1,-0" style="fill:none;stroke:#5abc52;stroke-width:12.04px;"/></g><g><path d="M126.477,239.72l262.429,0.261" style="fill:none;stroke:#5abc52;stroke-width:12.04px;"/></g><g><path d="M126.477,828.177l262.429,0.261" style="fill:none;stroke:#5abc52;stroke-width:12.04px;"/></g><g><path d="M125.228,239.978l-0,588.936" style="fill:none;stroke:#528ebc;stroke-width:12.04px;"/></g><g><path d="M389.921,239.978l-0,588.936" style="fill:none;stroke:#528ebc;stroke-width:12.04px;"/></g><g><path d="M511.819,115.912l-0,513.474" style="fill:none;stroke:#528ebc;stroke-width:12.04px;"/></g><g><path d="M279.724,115.912l-154.497,124.067" style="fill:none;stroke:#9e3f3f;stroke-width:12.04px;"/></g><g><path d="M510.475,115.912l-121.567,124.067" style="fill:none;stroke:#9e3f3f;stroke-width:12.04px;"/></g><g><path d="M511.818,629.388l-122.91,199.463" style="fill:none;stroke:#9e3f3f;stroke-width:12.04px;"/></g></g><path d="M118.666,236.328l159.042,-126.479l240.041,-0.304l0.403,523.763l-127.012,203.405l-272.474,-0.064l-0,-600.321Z" style="fill:#fff;fill-opacity:0.6;"/></g><path d="M518.152,119.823l0,531.724l197.199,143.971l0,-531.723l-197.199,-143.972Z" style="fill:#ff9c00;fill-opacity:0.2;"/><g><g><g><path d="M342.243,160.862l-154.465,124.068l-0,588.872l154.465,-197.478l0,-515.462Z" style="fill:#fff;stroke:#000;stroke-width:4.25px;"/></g><g><rect x="342.243" y="160.863" width="230.781" height="515.462" style="fill:#fff;stroke:#000;stroke-width:4.25px;"/></g><g><rect x="187.778" y="284.858" width="263.681" height="588.944" style="fill:#bdbdbd;stroke:#000;stroke-width:4.25px;"/></g><g><path d="M451.458,284.93l121.568,-124.068l-0,515.462l-121.568,197.478l0,-588.872Z" style="fill:#929292;stroke:#000;stroke-width:4.25px;"/></g><g><path d="M342.243,160.862l-154.465,123.996l263.68,0.072l121.568,-124.068l-230.783,0Z" style="fill:#e5e5e5;stroke:#000;stroke-width:4.25px;"/></g><g><path d="M342.271,160.864l232.1,0" style="fill:none;stroke:#5abc52;stroke-width:12.04px;"/></g><g><path d="M189.028,284.67l262.429,0.262" style="fill:none;stroke:#5abc52;stroke-width:12.04px;"/></g><g><path d="M189.028,873.128l262.429,0.261" style="fill:none;stroke:#5abc52;stroke-width:12.04px;"/></g><g><path d="M187.778,284.929l0,588.936" style="fill:none;stroke:#528ebc;stroke-width:12.04px;"/></g><g><path d="M452.471,284.929l0,588.936" style="fill:none;stroke:#528ebc;stroke-width:12.04px;"/></g><g><path d="M574.369,160.862l0,513.475" style="fill:none;stroke:#528ebc;stroke-width:12.04px;"/></g><g><path d="M342.274,160.862l-154.496,124.068" style="fill:none;stroke:#9e3f3f;stroke-width:12.04px;"/></g><g><path d="M573.026,160.862l-121.568,124.068" style="fill:none;stroke:#9e3f3f;stroke-width:12.04px;"/></g><g><path d="M574.368,674.339l-122.91,199.463" style="fill:none;stroke:#9e3f3f;stroke-width:12.04px;"/></g></g><path d="M181.216,281.279l159.042,-126.48l240.041,-0.303l0.404,523.763l-127.012,203.405l-272.475,-0.064l0,-600.321Z" style="fill:#fff;fill-opacity:0.4;"/></g><g><g><g><path d="M397.806,217.077l-154.466,124.067l0,588.872l154.466,-197.478l-0,-515.461Z" style="fill:#fff;stroke:#000;stroke-width:4.25px;"/></g><g><rect x="397.806" y="217.077" width="230.781" height="515.462" style="fill:#fff;stroke:#000;stroke-width:4.25px;"/></g><g><rect x="243.34" y="341.072" width="263.681" height="588.944" style="fill:#bdbdbd;stroke:#000;stroke-width:4.25px;"/></g><g><path d="M507.021,341.144l121.567,-124.067l0,515.461l-121.567,197.478l0,-588.872Z" style="fill:#929292;stroke:#000;stroke-width:4.25px;"/></g><g><path d="M397.806,217.077l-154.466,123.995l263.681,0.072l121.567,-124.067l-230.782,-0Z" style="fill:#e5e5e5;stroke:#000;stroke-width:4.25px;"/></g><g><path d="M397.833,217.079l232.1,-0" style="fill:none;stroke:#5abc52;stroke-width:12.04px;"/></g><g><path d="M244.59,340.885l262.429,0.261" style="fill:none;stroke:#5abc52;stroke-width:12.04px;"/></g><g><path d="M244.59,929.342l262.429,0.261" style="fill:none;stroke:#5abc52;stroke-width:12.04px;"/></g><g><path d="M243.341,341.143l-0,588.936" style="fill:none;stroke:#528ebc;stroke-width:12.04px;"/></g><g><path d="M508.034,341.143l-0,588.936" style="fill:none;stroke:#528ebc;stroke-width:12.04px;"/></g><g><path d="M629.932,217.077l-0,513.474" style="fill:none;stroke:#528ebc;stroke-width:12.04px;"/></g><g><path d="M397.837,217.077l-154.497,124.067" style="fill:none;stroke:#9e3f3f;stroke-width:12.04px;"/></g><g><path d="M628.588,217.077l-121.567,124.067" style="fill:none;stroke:#9e3f3f;stroke-width:12.04px;"/></g><g><path d="M629.931,730.553l-122.91,199.463" style="fill:none;stroke:#9e3f3f;stroke-width:12.04px;"/></g></g><path d="M236.779,337.493l159.042,-126.479l240.041,-0.304l0.403,523.763l-127.012,203.405l-272.474,-0.064l-0,-600.321Z" style="fill:#fff;fill-opacity:0.2;"/></g><g><g><g><path d="M479.436,278.536l-154.466,124.067l0,588.872l154.466,-197.478l-0,-515.461Z" style="fill:#fff;stroke:#000;stroke-width:4.25px;"/></g><g><rect x="479.436" y="278.536" width="230.781" height="515.462" style="fill:#fff;stroke:#000;stroke-width:4.25px;"/></g><g><rect x="324.97" y="402.531" width="263.681" height="588.944" style="fill:#bdbdbd;stroke:#000;stroke-width:4.25px;"/></g><g><path d="M588.651,402.603l121.567,-124.067l0,515.461l-121.567,197.478l0,-588.872Z" style="fill:#929292;stroke:#000;stroke-width:4.25px;"/></g><g><path d="M479.436,278.536l-154.466,123.995l263.681,0.072l121.567,-124.067l-230.782,-0Z" style="fill:#e5e5e5;stroke:#000;stroke-width:4.25px;"/></g><g><path d="M479.463,278.538l232.101,-0" style="fill:none;stroke:#5abc52;stroke-width:12.04px;"/></g><g><path d="M326.22,402.344l262.429,0.261" style="fill:none;stroke:#5abc52;stroke-width:12.04px;"/></g><g><path d="M326.22,990.801l262.429,0.261" style="fill:none;stroke:#5abc52;stroke-width:12.04px;"/></g><g><path d="M324.971,402.602l-0,588.936" style="fill:none;stroke:#528ebc;stroke-width:12.04px;"/></g><g><path d="M589.664,402.602l-0,588.936" style="fill:none;stroke:#528ebc;stroke-width:12.04px;"/></g><g><path d="M711.562,278.536l-0,513.474" style="fill:none;stroke:#528ebc;stroke-width:12.04px;"/></g><g><path d="M479.467,278.536l-154.497,124.067" style="fill:none;stroke:#9e3f3f;stroke-width:12.04px;"/></g><g><path d="M710.218,278.536l-121.567,124.067" style="fill:none;stroke:#9e3f3f;stroke-width:12.04px;"/></g><g><path d="M711.561,792.012l-122.91,199.463" style="fill:none;stroke:#9e3f3f;stroke-width:12.04px;"/></g></g><path d="M318.409,398.952l159.042,-126.48l240.041,-0.303l0.403,523.763l-127.011,203.405l-272.475,-0.064l-0,-600.321Z" style="fill:#fff;fill-opacity:0;"/></g><g><text x="231.149px" y="1058.47px" style="font-family:'ArialMT', 'Arial', sans-serif;font-size:71.615px;fill:#216b1b;">Receptors (16)</text></g><g transform="matrix(0.778066,-0.628183,0.628183,0.778066,-173.191,79.3151)"><text x="25.655px" y="284.765px" style="font-family:'ArialMT', 'Arial', sans-serif;font-size:71.615px;fill:#741818;">Antigens (9)</text></g><g><g transform="matrix(6.12323e-17,-1,1,6.12323e-17,-684.443,857.598)"><text x="86.577px" y="771.02px" style="font-family:'ArialMT', 'Arial', sans-serif;font-size:71.615px;fill:#204b6c;">Subjects (222)</text></g></g><path d="M121.21,243.037l197.199,159.442" style="fill:none;stroke:#ff00be;stroke-width:12.5px;"/><path d="M121.21,831.895l197.199,159.442" style="fill:none;stroke:#ff00be;stroke-width:12.5px;"/><path d="M518.152,112.727l197.199,159.442" style="fill:none;stroke:#ff00be;stroke-width:12.5px;"/><g transform="matrix(0.772118,0.635479,-0.635479,0.772118,-482.424,-37.2881)"><text x="842.152px" y="-547.949px" style="font-family:'ArialMT', 'Arial', sans-serif;font-size:66.667px;fill:#ff00be;">W<tspan x="903.871px 940.948px " y="-547.949px -547.949px ">ee</tspan>ks (4)</text></g><path d="M121.21,251.037l-0,588.858l197.199,159.442l-0,-588.858l-197.199,-159.442Z" style="fill:#ff9c00;fill-opacity:0.2;"/></svg>