<?xml version="1.0" encoding="UTF-8" standalone="no"?><!DOCTYPE svg PUBLIC "-//W3C//DTD SVG 1.1//EN" "http://www.w3.org/Graphics/SVG/1.1/DTD/svg11.dtd"><svg width="100%" height="100%" viewBox="0 0 780 1080" version="1.1" xmlns="http://www.w3.org/2000/svg" xmlns:xlink="http://www.w3.org/1999/xlink" xml:space="preserve" xmlns:serif="http://www.serif.com/" style="fill-rule:evenodd;clip-rule:evenodd;stroke-linecap:round;stroke-linejoin:round;stroke-miterlimit:1.5;"><g><g><g><path d="M326.991,182.783l-154.465,124.067l-0,588.872l154.465,-197.478l0,-515.461Z" style="fill:#fff;stroke:#000;stroke-width:4.25px;"/></g><g><rect x="326.991" y="182.783" width="230.781" height="515.462" style="fill:#fff;stroke:#000;stroke-width:4.25px;"/></g><g><rect x="172.526" y="306.778" width="263.681" height="588.944" style="fill:#bdbdbd;stroke:#000;stroke-width:4.25px;"/></g><g><path d="M436.207,306.85l121.567,-124.067l-0,515.461l-121.567,197.478l-0,-588.872Z" style="fill:#929292;stroke:#000;stroke-width:4.25px;"/></g><g><path d="M326.991,182.783l-154.465,123.995l263.681,0.072l121.567,-124.067l-230.783,-0Z" style="fill:#e5e5e5;stroke:#000;stroke-width:4.25px;"/></g><g><path d="M327.019,182.785l232.1,-0" style="fill:none;stroke:#5abc52;stroke-width:12.04px;"/></g><g><path d="M173.776,306.591l262.429,0.261" style="fill:none;stroke:#5abc52;stroke-width:12.04px;"/></g><g><path d="M173.776,895.048l262.429,0.261" style="fill:none;stroke:#5abc52;stroke-width:12.04px;"/></g><g><path d="M172.526,306.849l0,588.936" style="fill:none;stroke:#528ebc;stroke-width:12.04px;"/></g><g><path d="M437.219,306.849l0,588.936" style="fill:none;stroke:#528ebc;stroke-width:12.04px;"/></g><g><path d="M559.117,182.783l0,513.474" style="fill:none;stroke:#528ebc;stroke-width:12.04px;"/></g><g><path d="M327.023,182.783l-154.497,124.067" style="fill:none;stroke:#9e3f3f;stroke-width:12.04px;"/></g><g><path d="M557.774,182.783l-121.567,124.067" style="fill:none;stroke:#9e3f3f;stroke-width:12.04px;"/></g><g><path d="M559.116,696.259l-122.909,199.463" style="fill:none;stroke:#9e3f3f;stroke-width:12.04px;"/></g></g><path d="M165.964,303.199l159.042,-126.479l240.041,-0.304l0.404,523.763l-127.012,203.405l-272.475,-0.064l0,-600.321Z" style="fill:#fff;fill-opacity:0;"/></g><g><text x="127.363px" y="968.532px" style="font-family:'ArialMT', 'Arial', sans-serif;font-size:71.615px;fill:#216b1b;">Receptors (11)</text></g><g transform="matrix(0.778066,-0.628183,0.628183,0.778066,-201.25,118.785)"><text x="67.485px" y="344.211px" style="font-family:'ArialMT', 'Arial', sans-serif;font-size:71.615px;fill:#741818;">Antigens (6)</text></g><g><g transform="matrix(6.12323e-17,-1,1,6.12323e-17,-30.4664,1302.66)"><text x="636.098px" y="666.565px" style="font-family:'ArialMT', 'Arial', sans-serif;font-size:71.615px;fill:#204b6c;">Samples (438)</text></g></g></svg>