<?xml version="1.0" encoding="utf-8" standalone="no"?>
<!DOCTYPE svg PUBLIC "-//W3C//DTD SVG 1.1//EN"
  "http://www.w3.org/Graphics/SVG/1.1/DTD/svg11.dtd">
<!-- Created with matplotlib (https://matplotlib.org/) -->
<svg height="209.76397pt" version="1.1" viewBox="0 0 425.215947 209.76397" width="425.215947pt" xmlns="http://www.w3.org/2000/svg" xmlns:xlink="http://www.w3.org/1999/xlink">
 <metadata>
  <rdf:RDF xmlns:cc="http://creativecommons.org/ns#" xmlns:dc="http://purl.org/dc/elements/1.1/" xmlns:rdf="http://www.w3.org/1999/02/22-rdf-syntax-ns#">
   <cc:Work>
    <dc:type rdf:resource="http://purl.org/dc/dcmitype/StillImage"/>
    <dc:date>2021-01-03T13:47:45.673179</dc:date>
    <dc:format>image/svg+xml</dc:format>
    <dc:creator>
     <cc:Agent>
      <dc:title>Matplotlib v3.3.3, https://matplotlib.org/</dc:title>
     </cc:Agent>
    </dc:creator>
   </cc:Work>
  </rdf:RDF>
 </metadata>
 <defs>
  <style type="text/css">*{stroke-linecap:butt;stroke-linejoin:round;}</style>
 </defs>
 <g id="figure_1">
  <g id="patch_1">
   <path d="M 0 209.76397 
L 425.215947 209.76397 
L 425.215947 0 
L 0 0 
z
" style="fill:#ffffff;"/>
  </g>
  <g id="axes_1">
   <g id="patch_2">
    <path d="M 34.509324 205.237212 
L 207.055947 205.237212 
L 207.055947 34.206202 
L 34.509324 34.206202 
z
" style="fill:#ffffff;"/>
   </g>
   <g id="matplotlib.axis_1">
    <g id="xtick_1">
     <g id="line2d_1">
      <defs>
       <path d="M 0 0 
L 0 -6 
" id="m93b6dde1c9" style="stroke:#262626;stroke-width:1.25;"/>
      </defs>
      <g>
       <use style="fill:#262626;stroke:#262626;stroke-width:1.25;" x="48.88821" xlink:href="#m93b6dde1c9" y="34.206202"/>
      </g>
     </g>
     <g id="text_1">
      <!-- ADCD -->
      <g style="fill:#262626;" transform="translate(37.637186 25.604843)scale(0.077 -0.077)">
       <defs>
        <path d="M 34.1875 63.1875 
L 20.796875 26.90625 
L 47.609375 26.90625 
z
M 28.609375 72.90625 
L 39.796875 72.90625 
L 67.578125 0 
L 57.328125 0 
L 50.6875 18.703125 
L 17.828125 18.703125 
L 11.1875 0 
L 0.78125 0 
z
" id="DejaVuSans-65"/>
        <path d="M 19.671875 64.796875 
L 19.671875 8.109375 
L 31.59375 8.109375 
Q 46.6875 8.109375 53.6875 14.9375 
Q 60.6875 21.78125 60.6875 36.53125 
Q 60.6875 51.171875 53.6875 57.984375 
Q 46.6875 64.796875 31.59375 64.796875 
z
M 9.8125 72.90625 
L 30.078125 72.90625 
Q 51.265625 72.90625 61.171875 64.09375 
Q 71.09375 55.28125 71.09375 36.53125 
Q 71.09375 17.671875 61.125 8.828125 
Q 51.171875 0 30.078125 0 
L 9.8125 0 
z
" id="DejaVuSans-68"/>
        <path d="M 64.40625 67.28125 
L 64.40625 56.890625 
Q 59.421875 61.53125 53.78125 63.8125 
Q 48.140625 66.109375 41.796875 66.109375 
Q 29.296875 66.109375 22.65625 58.46875 
Q 16.015625 50.828125 16.015625 36.375 
Q 16.015625 21.96875 22.65625 14.328125 
Q 29.296875 6.6875 41.796875 6.6875 
Q 48.140625 6.6875 53.78125 8.984375 
Q 59.421875 11.28125 64.40625 15.921875 
L 64.40625 5.609375 
Q 59.234375 2.09375 53.4375 0.328125 
Q 47.65625 -1.421875 41.21875 -1.421875 
Q 24.65625 -1.421875 15.125 8.703125 
Q 5.609375 18.84375 5.609375 36.375 
Q 5.609375 53.953125 15.125 64.078125 
Q 24.65625 74.21875 41.21875 74.21875 
Q 47.75 74.21875 53.53125 72.484375 
Q 59.328125 70.75 64.40625 67.28125 
z
" id="DejaVuSans-67"/>
       </defs>
       <use xlink:href="#DejaVuSans-65"/>
       <use x="68.408203" xlink:href="#DejaVuSans-68"/>
       <use x="145.410156" xlink:href="#DejaVuSans-67"/>
       <use x="215.234375" xlink:href="#DejaVuSans-68"/>
      </g>
     </g>
    </g>
    <g id="xtick_2">
     <g id="line2d_2">
      <g>
       <use style="fill:#262626;stroke:#262626;stroke-width:1.25;" x="77.64598" xlink:href="#m93b6dde1c9" y="34.206202"/>
      </g>
     </g>
     <g id="text_2">
      <!-- ADCC -->
      <g style="fill:#262626;" transform="translate(66.671074 25.604843)scale(0.077 -0.077)">
       <use xlink:href="#DejaVuSans-65"/>
       <use x="68.408203" xlink:href="#DejaVuSans-68"/>
       <use x="145.410156" xlink:href="#DejaVuSans-67"/>
       <use x="215.234375" xlink:href="#DejaVuSans-67"/>
      </g>
     </g>
    </g>
    <g id="xtick_3">
     <g id="line2d_3">
      <g>
       <use style="fill:#262626;stroke:#262626;stroke-width:1.25;" x="106.40375" xlink:href="#m93b6dde1c9" y="34.206202"/>
      </g>
     </g>
     <g id="text_3">
      <!-- ADNP -->
      <g style="fill:#262626;" transform="translate(95.603899 25.604843)scale(0.077 -0.077)">
       <defs>
        <path d="M 9.8125 72.90625 
L 23.09375 72.90625 
L 55.421875 11.921875 
L 55.421875 72.90625 
L 64.984375 72.90625 
L 64.984375 0 
L 51.703125 0 
L 19.390625 60.984375 
L 19.390625 0 
L 9.8125 0 
z
" id="DejaVuSans-78"/>
        <path d="M 19.671875 64.796875 
L 19.671875 37.40625 
L 32.078125 37.40625 
Q 38.96875 37.40625 42.71875 40.96875 
Q 46.484375 44.53125 46.484375 51.125 
Q 46.484375 57.671875 42.71875 61.234375 
Q 38.96875 64.796875 32.078125 64.796875 
z
M 9.8125 72.90625 
L 32.078125 72.90625 
Q 44.34375 72.90625 50.609375 67.359375 
Q 56.890625 61.8125 56.890625 51.125 
Q 56.890625 40.328125 50.609375 34.8125 
Q 44.34375 29.296875 32.078125 29.296875 
L 19.671875 29.296875 
L 19.671875 0 
L 9.8125 0 
z
" id="DejaVuSans-80"/>
       </defs>
       <use xlink:href="#DejaVuSans-65"/>
       <use x="68.408203" xlink:href="#DejaVuSans-68"/>
       <use x="145.410156" xlink:href="#DejaVuSans-78"/>
       <use x="220.214844" xlink:href="#DejaVuSans-80"/>
      </g>
     </g>
    </g>
    <g id="xtick_4">
     <g id="line2d_4">
      <g>
       <use style="fill:#262626;stroke:#262626;stroke-width:1.25;" x="135.161521" xlink:href="#m93b6dde1c9" y="34.206202"/>
      </g>
     </g>
     <g id="text_4">
      <!-- CD107a -->
      <g style="fill:#262626;" transform="translate(119.800622 25.604843)scale(0.077 -0.077)">
       <defs>
        <path d="M 12.40625 8.296875 
L 28.515625 8.296875 
L 28.515625 63.921875 
L 10.984375 60.40625 
L 10.984375 69.390625 
L 28.421875 72.90625 
L 38.28125 72.90625 
L 38.28125 8.296875 
L 54.390625 8.296875 
L 54.390625 0 
L 12.40625 0 
z
" id="DejaVuSans-49"/>
        <path d="M 31.78125 66.40625 
Q 24.171875 66.40625 20.328125 58.90625 
Q 16.5 51.421875 16.5 36.375 
Q 16.5 21.390625 20.328125 13.890625 
Q 24.171875 6.390625 31.78125 6.390625 
Q 39.453125 6.390625 43.28125 13.890625 
Q 47.125 21.390625 47.125 36.375 
Q 47.125 51.421875 43.28125 58.90625 
Q 39.453125 66.40625 31.78125 66.40625 
z
M 31.78125 74.21875 
Q 44.046875 74.21875 50.515625 64.515625 
Q 56.984375 54.828125 56.984375 36.375 
Q 56.984375 17.96875 50.515625 8.265625 
Q 44.046875 -1.421875 31.78125 -1.421875 
Q 19.53125 -1.421875 13.0625 8.265625 
Q 6.59375 17.96875 6.59375 36.375 
Q 6.59375 54.828125 13.0625 64.515625 
Q 19.53125 74.21875 31.78125 74.21875 
z
" id="DejaVuSans-48"/>
        <path d="M 8.203125 72.90625 
L 55.078125 72.90625 
L 55.078125 68.703125 
L 28.609375 0 
L 18.3125 0 
L 43.21875 64.59375 
L 8.203125 64.59375 
z
" id="DejaVuSans-55"/>
        <path d="M 34.28125 27.484375 
Q 23.390625 27.484375 19.1875 25 
Q 14.984375 22.515625 14.984375 16.5 
Q 14.984375 11.71875 18.140625 8.90625 
Q 21.296875 6.109375 26.703125 6.109375 
Q 34.1875 6.109375 38.703125 11.40625 
Q 43.21875 16.703125 43.21875 25.484375 
L 43.21875 27.484375 
z
M 52.203125 31.203125 
L 52.203125 0 
L 43.21875 0 
L 43.21875 8.296875 
Q 40.140625 3.328125 35.546875 0.953125 
Q 30.953125 -1.421875 24.3125 -1.421875 
Q 15.921875 -1.421875 10.953125 3.296875 
Q 6 8.015625 6 15.921875 
Q 6 25.140625 12.171875 29.828125 
Q 18.359375 34.515625 30.609375 34.515625 
L 43.21875 34.515625 
L 43.21875 35.40625 
Q 43.21875 41.609375 39.140625 45 
Q 35.0625 48.390625 27.6875 48.390625 
Q 23 48.390625 18.546875 47.265625 
Q 14.109375 46.140625 10.015625 43.890625 
L 10.015625 52.203125 
Q 14.9375 54.109375 19.578125 55.046875 
Q 24.21875 56 28.609375 56 
Q 40.484375 56 46.34375 49.84375 
Q 52.203125 43.703125 52.203125 31.203125 
z
" id="DejaVuSans-97"/>
       </defs>
       <use xlink:href="#DejaVuSans-67"/>
       <use x="69.824219" xlink:href="#DejaVuSans-68"/>
       <use x="146.826172" xlink:href="#DejaVuSans-49"/>
       <use x="210.449219" xlink:href="#DejaVuSans-48"/>
       <use x="274.072266" xlink:href="#DejaVuSans-55"/>
       <use x="337.695312" xlink:href="#DejaVuSans-97"/>
      </g>
     </g>
    </g>
    <g id="xtick_5">
     <g id="line2d_5">
      <g>
       <use style="fill:#262626;stroke:#262626;stroke-width:1.25;" x="163.919291" xlink:href="#m93b6dde1c9" y="34.206202"/>
      </g>
     </g>
     <g id="text_5">
      <!-- IFNγ -->
      <g style="fill:#262626;" transform="translate(155.41019 25.604843)scale(0.077 -0.077)">
       <defs>
        <path d="M 9.8125 72.90625 
L 19.671875 72.90625 
L 19.671875 0 
L 9.8125 0 
z
" id="DejaVuSans-73"/>
        <path d="M 9.8125 72.90625 
L 51.703125 72.90625 
L 51.703125 64.59375 
L 19.671875 64.59375 
L 19.671875 43.109375 
L 48.578125 43.109375 
L 48.578125 34.8125 
L 19.671875 34.8125 
L 19.671875 0 
L 9.8125 0 
z
" id="DejaVuSans-70"/>
        <path d="M 17.625 46.09375 
L 29.59375 12.3125 
L 46.6875 54.6875 
L 56.203125 54.6875 
L 34.078125 0 
L 34.078125 -20.796875 
L 25.09375 -20.796875 
L 25.09375 0 
L 10.75 40.828125 
Q 8.59375 46.96875 3.953125 46.96875 
L 1.5625 46.96875 
L 1.5625 54.6875 
L 4.984375 54.6875 
Q 14.59375 54.6875 17.625 46.09375 
z
" id="DejaVuSans-947"/>
       </defs>
       <use xlink:href="#DejaVuSans-73"/>
       <use x="29.492188" xlink:href="#DejaVuSans-70"/>
       <use x="87.011719" xlink:href="#DejaVuSans-78"/>
       <use x="161.816406" xlink:href="#DejaVuSans-947"/>
      </g>
     </g>
    </g>
    <g id="xtick_6">
     <g id="line2d_6">
      <g>
       <use style="fill:#262626;stroke:#262626;stroke-width:1.25;" x="192.677062" xlink:href="#m93b6dde1c9" y="34.206202"/>
      </g>
     </g>
     <g id="text_6">
      <!-- MIP1β -->
      <g style="fill:#262626;" transform="translate(180.99171 25.604843)scale(0.077 -0.077)">
       <defs>
        <path d="M 9.8125 72.90625 
L 24.515625 72.90625 
L 43.109375 23.296875 
L 61.8125 72.90625 
L 76.515625 72.90625 
L 76.515625 0 
L 66.890625 0 
L 66.890625 64.015625 
L 48.09375 14.015625 
L 38.1875 14.015625 
L 19.390625 64.015625 
L 19.390625 0 
L 9.8125 0 
z
" id="DejaVuSans-77"/>
        <path d="M 18.40625 3.375 
L 18.40625 -20.796875 
L 9.375 -20.796875 
L 9.375 54.34375 
Q 9.375 76.609375 30.171875 76.609375 
Q 51.375 76.609375 51.375 57.8125 
Q 51.375 44.4375 42.96875 39.546875 
Q 56.640625 35.15625 56.640625 22.125 
Q 56.640625 -1.03125 33.109375 -1.03125 
Q 22.75 -1.03125 18.40625 3.375 
z
M 18.40625 15.09375 
Q 23.828125 6.640625 33.453125 6.640625 
Q 47.515625 6.640625 47.515625 21.96875 
Q 47.515625 35.75 24.859375 34.671875 
L 24.859375 42.96875 
Q 42.578125 42.96875 42.578125 58.59375 
Q 42.578125 69.28125 31.15625 69.28125 
Q 18.40625 69.28125 18.40625 54.046875 
z
" id="DejaVuSans-946"/>
       </defs>
       <use xlink:href="#DejaVuSans-77"/>
       <use x="86.279297" xlink:href="#DejaVuSans-73"/>
       <use x="115.771484" xlink:href="#DejaVuSans-80"/>
       <use x="176.074219" xlink:href="#DejaVuSans-49"/>
       <use x="239.697266" xlink:href="#DejaVuSans-946"/>
      </g>
     </g>
    </g>
    <g id="text_7">
     <!-- Function -->
     <g style="fill:#262626;" transform="translate(102.920167 15.705921)scale(0.084 -0.084)">
      <defs>
       <path d="M 8.5 21.578125 
L 8.5 54.6875 
L 17.484375 54.6875 
L 17.484375 21.921875 
Q 17.484375 14.15625 20.5 10.265625 
Q 23.53125 6.390625 29.59375 6.390625 
Q 36.859375 6.390625 41.078125 11.03125 
Q 45.3125 15.671875 45.3125 23.6875 
L 45.3125 54.6875 
L 54.296875 54.6875 
L 54.296875 0 
L 45.3125 0 
L 45.3125 8.40625 
Q 42.046875 3.421875 37.71875 1 
Q 33.40625 -1.421875 27.6875 -1.421875 
Q 18.265625 -1.421875 13.375 4.4375 
Q 8.5 10.296875 8.5 21.578125 
z
M 31.109375 56 
z
" id="DejaVuSans-117"/>
       <path d="M 54.890625 33.015625 
L 54.890625 0 
L 45.90625 0 
L 45.90625 32.71875 
Q 45.90625 40.484375 42.875 44.328125 
Q 39.84375 48.1875 33.796875 48.1875 
Q 26.515625 48.1875 22.3125 43.546875 
Q 18.109375 38.921875 18.109375 30.90625 
L 18.109375 0 
L 9.078125 0 
L 9.078125 54.6875 
L 18.109375 54.6875 
L 18.109375 46.1875 
Q 21.34375 51.125 25.703125 53.5625 
Q 30.078125 56 35.796875 56 
Q 45.21875 56 50.046875 50.171875 
Q 54.890625 44.34375 54.890625 33.015625 
z
" id="DejaVuSans-110"/>
       <path d="M 48.78125 52.59375 
L 48.78125 44.1875 
Q 44.96875 46.296875 41.140625 47.34375 
Q 37.3125 48.390625 33.40625 48.390625 
Q 24.65625 48.390625 19.8125 42.84375 
Q 14.984375 37.3125 14.984375 27.296875 
Q 14.984375 17.28125 19.8125 11.734375 
Q 24.65625 6.203125 33.40625 6.203125 
Q 37.3125 6.203125 41.140625 7.25 
Q 44.96875 8.296875 48.78125 10.40625 
L 48.78125 2.09375 
Q 45.015625 0.34375 40.984375 -0.53125 
Q 36.96875 -1.421875 32.421875 -1.421875 
Q 20.0625 -1.421875 12.78125 6.34375 
Q 5.515625 14.109375 5.515625 27.296875 
Q 5.515625 40.671875 12.859375 48.328125 
Q 20.21875 56 33.015625 56 
Q 37.15625 56 41.109375 55.140625 
Q 45.0625 54.296875 48.78125 52.59375 
z
" id="DejaVuSans-99"/>
       <path d="M 18.3125 70.21875 
L 18.3125 54.6875 
L 36.8125 54.6875 
L 36.8125 47.703125 
L 18.3125 47.703125 
L 18.3125 18.015625 
Q 18.3125 11.328125 20.140625 9.421875 
Q 21.96875 7.515625 27.59375 7.515625 
L 36.8125 7.515625 
L 36.8125 0 
L 27.59375 0 
Q 17.1875 0 13.234375 3.875 
Q 9.28125 7.765625 9.28125 18.015625 
L 9.28125 47.703125 
L 2.6875 47.703125 
L 2.6875 54.6875 
L 9.28125 54.6875 
L 9.28125 70.21875 
z
" id="DejaVuSans-116"/>
       <path d="M 9.421875 54.6875 
L 18.40625 54.6875 
L 18.40625 0 
L 9.421875 0 
z
M 9.421875 75.984375 
L 18.40625 75.984375 
L 18.40625 64.59375 
L 9.421875 64.59375 
z
" id="DejaVuSans-105"/>
       <path d="M 30.609375 48.390625 
Q 23.390625 48.390625 19.1875 42.75 
Q 14.984375 37.109375 14.984375 27.296875 
Q 14.984375 17.484375 19.15625 11.84375 
Q 23.34375 6.203125 30.609375 6.203125 
Q 37.796875 6.203125 41.984375 11.859375 
Q 46.1875 17.53125 46.1875 27.296875 
Q 46.1875 37.015625 41.984375 42.703125 
Q 37.796875 48.390625 30.609375 48.390625 
z
M 30.609375 56 
Q 42.328125 56 49.015625 48.375 
Q 55.71875 40.765625 55.71875 27.296875 
Q 55.71875 13.875 49.015625 6.21875 
Q 42.328125 -1.421875 30.609375 -1.421875 
Q 18.84375 -1.421875 12.171875 6.21875 
Q 5.515625 13.875 5.515625 27.296875 
Q 5.515625 40.765625 12.171875 48.375 
Q 18.84375 56 30.609375 56 
z
" id="DejaVuSans-111"/>
      </defs>
      <use xlink:href="#DejaVuSans-70"/>
      <use x="52.019531" xlink:href="#DejaVuSans-117"/>
      <use x="115.398438" xlink:href="#DejaVuSans-110"/>
      <use x="178.777344" xlink:href="#DejaVuSans-99"/>
      <use x="233.757812" xlink:href="#DejaVuSans-116"/>
      <use x="272.966797" xlink:href="#DejaVuSans-105"/>
      <use x="300.75" xlink:href="#DejaVuSans-111"/>
      <use x="361.931641" xlink:href="#DejaVuSans-110"/>
     </g>
    </g>
   </g>
   <g id="matplotlib.axis_2">
    <g id="ytick_1">
     <g id="text_8">
      <!-- 0.0 -->
      <g style="fill:#262626;" transform="translate(15.263918 208.16261)scale(0.077 -0.077)">
       <defs>
        <path d="M 10.6875 12.40625 
L 21 12.40625 
L 21 0 
L 10.6875 0 
z
" id="DejaVuSans-46"/>
       </defs>
       <use xlink:href="#DejaVuSans-48"/>
       <use x="63.623047" xlink:href="#DejaVuSans-46"/>
       <use x="95.410156" xlink:href="#DejaVuSans-48"/>
      </g>
     </g>
    </g>
    <g id="ytick_2">
     <g id="text_9">
      <!-- 0.2 -->
      <g style="fill:#262626;" transform="translate(15.263918 173.956408)scale(0.077 -0.077)">
       <defs>
        <path d="M 19.1875 8.296875 
L 53.609375 8.296875 
L 53.609375 0 
L 7.328125 0 
L 7.328125 8.296875 
Q 12.9375 14.109375 22.625 23.890625 
Q 32.328125 33.6875 34.8125 36.53125 
Q 39.546875 41.84375 41.421875 45.53125 
Q 43.3125 49.21875 43.3125 52.78125 
Q 43.3125 58.59375 39.234375 62.25 
Q 35.15625 65.921875 28.609375 65.921875 
Q 23.96875 65.921875 18.8125 64.3125 
Q 13.671875 62.703125 7.8125 59.421875 
L 7.8125 69.390625 
Q 13.765625 71.78125 18.9375 73 
Q 24.125 74.21875 28.421875 74.21875 
Q 39.75 74.21875 46.484375 68.546875 
Q 53.21875 62.890625 53.21875 53.421875 
Q 53.21875 48.921875 51.53125 44.890625 
Q 49.859375 40.875 45.40625 35.40625 
Q 44.1875 33.984375 37.640625 27.21875 
Q 31.109375 20.453125 19.1875 8.296875 
z
" id="DejaVuSans-50"/>
       </defs>
       <use xlink:href="#DejaVuSans-48"/>
       <use x="63.623047" xlink:href="#DejaVuSans-46"/>
       <use x="95.410156" xlink:href="#DejaVuSans-50"/>
      </g>
     </g>
    </g>
    <g id="ytick_3">
     <g id="text_10">
      <!-- 0.4 -->
      <g style="fill:#262626;" transform="translate(15.263918 139.750206)scale(0.077 -0.077)">
       <defs>
        <path d="M 37.796875 64.3125 
L 12.890625 25.390625 
L 37.796875 25.390625 
z
M 35.203125 72.90625 
L 47.609375 72.90625 
L 47.609375 25.390625 
L 58.015625 25.390625 
L 58.015625 17.1875 
L 47.609375 17.1875 
L 47.609375 0 
L 37.796875 0 
L 37.796875 17.1875 
L 4.890625 17.1875 
L 4.890625 26.703125 
z
" id="DejaVuSans-52"/>
       </defs>
       <use xlink:href="#DejaVuSans-48"/>
       <use x="63.623047" xlink:href="#DejaVuSans-46"/>
       <use x="95.410156" xlink:href="#DejaVuSans-52"/>
      </g>
     </g>
    </g>
    <g id="ytick_4">
     <g id="text_11">
      <!-- 0.6 -->
      <g style="fill:#262626;" transform="translate(15.263918 105.544004)scale(0.077 -0.077)">
       <defs>
        <path d="M 33.015625 40.375 
Q 26.375 40.375 22.484375 35.828125 
Q 18.609375 31.296875 18.609375 23.390625 
Q 18.609375 15.53125 22.484375 10.953125 
Q 26.375 6.390625 33.015625 6.390625 
Q 39.65625 6.390625 43.53125 10.953125 
Q 47.40625 15.53125 47.40625 23.390625 
Q 47.40625 31.296875 43.53125 35.828125 
Q 39.65625 40.375 33.015625 40.375 
z
M 52.59375 71.296875 
L 52.59375 62.3125 
Q 48.875 64.0625 45.09375 64.984375 
Q 41.3125 65.921875 37.59375 65.921875 
Q 27.828125 65.921875 22.671875 59.328125 
Q 17.53125 52.734375 16.796875 39.40625 
Q 19.671875 43.65625 24.015625 45.921875 
Q 28.375 48.1875 33.59375 48.1875 
Q 44.578125 48.1875 50.953125 41.515625 
Q 57.328125 34.859375 57.328125 23.390625 
Q 57.328125 12.15625 50.6875 5.359375 
Q 44.046875 -1.421875 33.015625 -1.421875 
Q 20.359375 -1.421875 13.671875 8.265625 
Q 6.984375 17.96875 6.984375 36.375 
Q 6.984375 53.65625 15.1875 63.9375 
Q 23.390625 74.21875 37.203125 74.21875 
Q 40.921875 74.21875 44.703125 73.484375 
Q 48.484375 72.75 52.59375 71.296875 
z
" id="DejaVuSans-54"/>
       </defs>
       <use xlink:href="#DejaVuSans-48"/>
       <use x="63.623047" xlink:href="#DejaVuSans-46"/>
       <use x="95.410156" xlink:href="#DejaVuSans-54"/>
      </g>
     </g>
    </g>
    <g id="ytick_5">
     <g id="text_12">
      <!-- 0.8 -->
      <g style="fill:#262626;" transform="translate(15.263918 71.337802)scale(0.077 -0.077)">
       <defs>
        <path d="M 31.78125 34.625 
Q 24.75 34.625 20.71875 30.859375 
Q 16.703125 27.09375 16.703125 20.515625 
Q 16.703125 13.921875 20.71875 10.15625 
Q 24.75 6.390625 31.78125 6.390625 
Q 38.8125 6.390625 42.859375 10.171875 
Q 46.921875 13.96875 46.921875 20.515625 
Q 46.921875 27.09375 42.890625 30.859375 
Q 38.875 34.625 31.78125 34.625 
z
M 21.921875 38.8125 
Q 15.578125 40.375 12.03125 44.71875 
Q 8.5 49.078125 8.5 55.328125 
Q 8.5 64.0625 14.71875 69.140625 
Q 20.953125 74.21875 31.78125 74.21875 
Q 42.671875 74.21875 48.875 69.140625 
Q 55.078125 64.0625 55.078125 55.328125 
Q 55.078125 49.078125 51.53125 44.71875 
Q 48 40.375 41.703125 38.8125 
Q 48.828125 37.15625 52.796875 32.3125 
Q 56.78125 27.484375 56.78125 20.515625 
Q 56.78125 9.90625 50.3125 4.234375 
Q 43.84375 -1.421875 31.78125 -1.421875 
Q 19.734375 -1.421875 13.25 4.234375 
Q 6.78125 9.90625 6.78125 20.515625 
Q 6.78125 27.484375 10.78125 32.3125 
Q 14.796875 37.15625 21.921875 38.8125 
z
M 18.3125 54.390625 
Q 18.3125 48.734375 21.84375 45.5625 
Q 25.390625 42.390625 31.78125 42.390625 
Q 38.140625 42.390625 41.71875 45.5625 
Q 45.3125 48.734375 45.3125 54.390625 
Q 45.3125 60.0625 41.71875 63.234375 
Q 38.140625 66.40625 31.78125 66.40625 
Q 25.390625 66.40625 21.84375 63.234375 
Q 18.3125 60.0625 18.3125 54.390625 
z
" id="DejaVuSans-56"/>
       </defs>
       <use xlink:href="#DejaVuSans-48"/>
       <use x="63.623047" xlink:href="#DejaVuSans-46"/>
       <use x="95.410156" xlink:href="#DejaVuSans-56"/>
      </g>
     </g>
    </g>
    <g id="ytick_6">
     <g id="text_13">
      <!-- 1.0 -->
      <g style="fill:#262626;" transform="translate(15.263918 37.1316)scale(0.077 -0.077)">
       <use xlink:href="#DejaVuSans-49"/>
       <use x="63.623047" xlink:href="#DejaVuSans-46"/>
       <use x="95.410156" xlink:href="#DejaVuSans-48"/>
      </g>
     </g>
    </g>
    <g id="text_14">
     <!-- Accuracy -->
     <g style="fill:#262626;" transform="translate(9.516981 138.897332)rotate(-90)scale(0.084 -0.084)">
      <defs>
       <path d="M 41.109375 46.296875 
Q 39.59375 47.171875 37.8125 47.578125 
Q 36.03125 48 33.890625 48 
Q 26.265625 48 22.1875 43.046875 
Q 18.109375 38.09375 18.109375 28.8125 
L 18.109375 0 
L 9.078125 0 
L 9.078125 54.6875 
L 18.109375 54.6875 
L 18.109375 46.1875 
Q 20.953125 51.171875 25.484375 53.578125 
Q 30.03125 56 36.53125 56 
Q 37.453125 56 38.578125 55.875 
Q 39.703125 55.765625 41.0625 55.515625 
z
" id="DejaVuSans-114"/>
       <path d="M 32.171875 -5.078125 
Q 28.375 -14.84375 24.75 -17.8125 
Q 21.140625 -20.796875 15.09375 -20.796875 
L 7.90625 -20.796875 
L 7.90625 -13.28125 
L 13.1875 -13.28125 
Q 16.890625 -13.28125 18.9375 -11.515625 
Q 21 -9.765625 23.484375 -3.21875 
L 25.09375 0.875 
L 2.984375 54.6875 
L 12.5 54.6875 
L 29.59375 11.921875 
L 46.6875 54.6875 
L 56.203125 54.6875 
z
" id="DejaVuSans-121"/>
      </defs>
      <use xlink:href="#DejaVuSans-65"/>
      <use x="66.658203" xlink:href="#DejaVuSans-99"/>
      <use x="121.638672" xlink:href="#DejaVuSans-99"/>
      <use x="176.619141" xlink:href="#DejaVuSans-117"/>
      <use x="239.998047" xlink:href="#DejaVuSans-114"/>
      <use x="281.111328" xlink:href="#DejaVuSans-97"/>
      <use x="342.390625" xlink:href="#DejaVuSans-99"/>
      <use x="397.371094" xlink:href="#DejaVuSans-121"/>
     </g>
    </g>
   </g>
   <g id="PathCollection_1">
    <path clip-path="url(#p3789f85a6c)" d="M 48.88821 94.862675 
C 49.683819 94.862675 50.446949 94.546576 51.00953 93.983995 
C 51.572111 93.421415 51.88821 92.658284 51.88821 91.862675 
C 51.88821 91.067066 51.572111 90.303935 51.00953 89.741355 
C 50.446949 89.178774 49.683819 88.862675 48.88821 88.862675 
C 48.0926 88.862675 47.32947 89.178774 46.766889 89.741355 
C 46.204309 90.303935 45.88821 91.067066 45.88821 91.862675 
C 45.88821 92.658284 46.204309 93.421415 46.766889 93.983995 
C 47.32947 94.546576 48.0926 94.862675 48.88821 94.862675 
z
" style="fill:#4c72b0;stroke:#ffffff;stroke-width:0.48;"/>
    <path clip-path="url(#p3789f85a6c)" d="M 77.64598 104.004956 
C 78.441589 104.004956 79.20472 103.688857 79.7673 103.126276 
C 80.329881 102.563696 80.64598 101.800565 80.64598 101.004956 
C 80.64598 100.209347 80.329881 99.446216 79.7673 98.883636 
C 79.20472 98.321055 78.441589 98.004956 77.64598 98.004956 
C 76.850371 98.004956 76.08724 98.321055 75.52466 98.883636 
C 74.962079 99.446216 74.64598 100.209347 74.64598 101.004956 
C 74.64598 101.800565 74.962079 102.563696 75.52466 103.126276 
C 76.08724 103.688857 76.850371 104.004956 77.64598 104.004956 
z
" style="fill:#4c72b0;stroke:#ffffff;stroke-width:0.48;"/>
    <path clip-path="url(#p3789f85a6c)" d="M 106.40375 123.835096 
C 107.19936 123.835096 107.96249 123.518997 108.525071 122.956417 
C 109.087651 122.393836 109.40375 121.630706 109.40375 120.835096 
C 109.40375 120.039487 109.087651 119.276357 108.525071 118.713776 
C 107.96249 118.151195 107.19936 117.835096 106.40375 117.835096 
C 105.608141 117.835096 104.845011 118.151195 104.28243 118.713776 
C 103.719849 119.276357 103.40375 120.039487 103.40375 120.835096 
C 103.40375 121.630706 103.719849 122.393836 104.28243 122.956417 
C 104.845011 123.518997 105.608141 123.835096 106.40375 123.835096 
z
" style="fill:#4c72b0;stroke:#ffffff;stroke-width:0.48;"/>
    <path clip-path="url(#p3789f85a6c)" d="M 135.161521 127.078289 
C 135.95713 127.078289 136.72026 126.762191 137.282841 126.19961 
C 137.845422 125.637029 138.161521 124.873899 138.161521 124.078289 
C 138.161521 123.28268 137.845422 122.51955 137.282841 121.956969 
C 136.72026 121.394388 135.95713 121.078289 135.161521 121.078289 
C 134.365911 121.078289 133.602781 121.394388 133.0402 121.956969 
C 132.47762 122.51955 132.161521 123.28268 132.161521 124.078289 
C 132.161521 124.873899 132.47762 125.637029 133.0402 126.19961 
C 133.602781 126.762191 134.365911 127.078289 135.161521 127.078289 
z
" style="fill:#4c72b0;stroke:#ffffff;stroke-width:0.48;"/>
    <path clip-path="url(#p3789f85a6c)" d="M 163.919291 130.358346 
C 164.7149 130.358346 165.478031 130.042247 166.040611 129.479666 
C 166.603192 128.917085 166.919291 128.153955 166.919291 127.358346 
C 166.919291 126.562736 166.603192 125.799606 166.040611 125.237025 
C 165.478031 124.674444 164.7149 124.358346 163.919291 124.358346 
C 163.123682 124.358346 162.360552 124.674444 161.797971 125.237025 
C 161.23539 125.799606 160.919291 126.562736 160.919291 127.358346 
C 160.919291 128.153955 161.23539 128.917085 161.797971 129.479666 
C 162.360552 130.042247 163.123682 130.358346 163.919291 130.358346 
z
" style="fill:#4c72b0;stroke:#ffffff;stroke-width:0.48;"/>
    <path clip-path="url(#p3789f85a6c)" d="M 192.677062 101.678673 
C 193.472671 101.678673 194.235801 101.362574 194.798382 100.799993 
C 195.360963 100.237412 195.677062 99.474282 195.677062 98.678673 
C 195.677062 97.883063 195.360963 97.119933 194.798382 96.557352 
C 194.235801 95.994772 193.472671 95.678673 192.677062 95.678673 
C 191.881452 95.678673 191.118322 95.994772 190.555741 96.557352 
C 189.99316 97.119933 189.677062 97.883063 189.677062 98.678673 
C 189.677062 99.474282 189.99316 100.237412 190.555741 100.799993 
C 191.118322 101.362574 191.881452 101.678673 192.677062 101.678673 
z
" style="fill:#4c72b0;stroke:#ffffff;stroke-width:0.48;"/>
    <path clip-path="url(#p3789f85a6c)" d="M 47.38821 91.184207 
L 48.88821 89.684207 
L 50.38821 91.184207 
L 51.88821 89.684207 
L 50.38821 88.184207 
L 51.88821 86.684207 
L 50.38821 85.184207 
L 48.88821 86.684207 
L 47.38821 85.184207 
L 45.88821 86.684207 
L 47.38821 88.184207 
L 45.88821 89.684207 
z
" style="fill:#dd8452;stroke:#ffffff;stroke-width:0.48;"/>
    <path clip-path="url(#p3789f85a6c)" d="M 76.14598 107.046745 
L 77.64598 105.546745 
L 79.14598 107.046745 
L 80.64598 105.546745 
L 79.14598 104.046745 
L 80.64598 102.546745 
L 79.14598 101.046745 
L 77.64598 102.546745 
L 76.14598 101.046745 
L 74.64598 102.546745 
L 76.14598 104.046745 
L 74.64598 105.546745 
z
" style="fill:#dd8452;stroke:#ffffff;stroke-width:0.48;"/>
    <path clip-path="url(#p3789f85a6c)" d="M 104.90375 118.499151 
L 106.40375 116.999151 
L 107.90375 118.499151 
L 109.40375 116.999151 
L 107.90375 115.499151 
L 109.40375 113.999151 
L 107.90375 112.499151 
L 106.40375 113.999151 
L 104.90375 112.499151 
L 103.40375 113.999151 
L 104.90375 115.499151 
L 103.40375 116.999151 
z
" style="fill:#dd8452;stroke:#ffffff;stroke-width:0.48;"/>
    <path clip-path="url(#p3789f85a6c)" d="M 133.661521 109.575533 
L 135.161521 108.075533 
L 136.661521 109.575533 
L 138.161521 108.075533 
L 136.661521 106.575533 
L 138.161521 105.075533 
L 136.661521 103.575533 
L 135.161521 105.075533 
L 133.661521 103.575533 
L 132.161521 105.075533 
L 133.661521 106.575533 
L 132.161521 108.075533 
z
" style="fill:#dd8452;stroke:#ffffff;stroke-width:0.48;"/>
    <path clip-path="url(#p3789f85a6c)" d="M 162.419291 105.711853 
L 163.919291 104.211853 
L 165.419291 105.711853 
L 166.919291 104.211853 
L 165.419291 102.711853 
L 166.919291 101.211853 
L 165.419291 99.711853 
L 163.919291 101.211853 
L 162.419291 99.711853 
L 160.919291 101.211853 
L 162.419291 102.711853 
L 160.919291 104.211853 
z
" style="fill:#dd8452;stroke:#ffffff;stroke-width:0.48;"/>
    <path clip-path="url(#p3789f85a6c)" d="M 191.177062 101.415469 
L 192.677062 99.915469 
L 194.177062 101.415469 
L 195.677062 99.915469 
L 194.177062 98.415469 
L 195.677062 96.915469 
L 194.177062 95.415469 
L 192.677062 96.915469 
L 191.177062 95.415469 
L 189.677062 96.915469 
L 191.177062 98.415469 
L 189.677062 99.915469 
z
" style="fill:#dd8452;stroke:#ffffff;stroke-width:0.48;"/>
    <path clip-path="url(#p3789f85a6c)" d="M 46.766889 88.674722 
L 46.766889 92.917363 
L 51.00953 92.917363 
L 51.00953 88.674722 
z
" style="fill:#55a868;stroke:#ffffff;stroke-width:0.48;"/>
    <path clip-path="url(#p3789f85a6c)" d="M 75.52466 80.23134 
L 75.52466 84.473981 
L 79.7673 84.473981 
L 79.7673 80.23134 
z
" style="fill:#55a868;stroke:#ffffff;stroke-width:0.48;"/>
    <path clip-path="url(#p3789f85a6c)" d="M 104.28243 98.198907 
L 104.28243 102.441548 
L 108.525071 102.441548 
L 108.525071 98.198907 
z
" style="fill:#55a868;stroke:#ffffff;stroke-width:0.48;"/>
    <path clip-path="url(#p3789f85a6c)" d="M 133.0402 107.793591 
L 133.0402 112.036231 
L 137.282841 112.036231 
L 137.282841 107.793591 
z
" style="fill:#55a868;stroke:#ffffff;stroke-width:0.48;"/>
    <path clip-path="url(#p3789f85a6c)" d="M 161.797971 97.091834 
L 161.797971 101.334474 
L 166.040611 101.334474 
L 166.040611 97.091834 
z
" style="fill:#55a868;stroke:#ffffff;stroke-width:0.48;"/>
    <path clip-path="url(#p3789f85a6c)" d="M 190.555741 111.853327 
L 190.555741 116.095967 
L 194.798382 116.095967 
L 194.798382 111.853327 
z
" style="fill:#55a868;stroke:#ffffff;stroke-width:0.48;"/>
   </g>
   <g id="PathCollection_2"/>
   <g id="PathCollection_3"/>
   <g id="PathCollection_4"/>
   <g id="patch_3">
    <path clip-path="url(#p3789f85a6c)" d="M 34.509324 205.237212 
L 34.509324 34.206202 
L 63.267095 34.206202 
L 63.267095 205.237212 
z
" style="fill:#808080;opacity:0.1;stroke:#808080;stroke-linejoin:miter;"/>
   </g>
   <g id="patch_4">
    <path clip-path="url(#p3789f85a6c)" d="M 92.024865 205.237212 
L 92.024865 34.206202 
L 120.782636 34.206202 
L 120.782636 205.237212 
z
" style="fill:#808080;opacity:0.1;stroke:#808080;stroke-linejoin:miter;"/>
   </g>
   <g id="patch_5">
    <path clip-path="url(#p3789f85a6c)" d="M 149.540406 205.237212 
L 149.540406 34.206202 
L 178.298176 34.206202 
L 178.298176 205.237212 
z
" style="fill:#808080;opacity:0.1;stroke:#808080;stroke-linejoin:miter;"/>
   </g>
   <g id="patch_6">
    <path d="M 34.509324 205.237212 
L 34.509324 34.206202 
" style="fill:none;stroke:#cccccc;stroke-linecap:square;stroke-linejoin:miter;stroke-width:0.6;"/>
   </g>
   <g id="patch_7">
    <path d="M 207.055947 205.237212 
L 207.055947 34.206202 
" style="fill:none;stroke:#cccccc;stroke-linecap:square;stroke-linejoin:miter;stroke-width:0.6;"/>
   </g>
   <g id="patch_8">
    <path d="M 34.509324 205.237212 
L 207.055947 205.237212 
" style="fill:none;stroke:#cccccc;stroke-linecap:square;stroke-linejoin:miter;stroke-width:0.6;"/>
   </g>
   <g id="patch_9">
    <path d="M 34.509324 34.206202 
L 207.055947 34.206202 
" style="fill:none;stroke:#cccccc;stroke-linecap:square;stroke-linejoin:miter;stroke-width:0.6;"/>
   </g>
   <g id="text_15">
    <!-- a -->
    <g style="fill:#262626;" transform="translate(-0 12.1575)scale(0.16 -0.16)">
     <defs>
      <path d="M 32.90625 24.609375 
Q 27.4375 24.609375 24.671875 22.75 
Q 21.921875 20.90625 21.921875 17.28125 
Q 21.921875 13.96875 24.140625 12.078125 
Q 26.375 10.203125 30.328125 10.203125 
Q 35.25 10.203125 38.625 13.734375 
Q 42 17.28125 42 22.609375 
L 42 24.609375 
z
M 59.625 31.203125 
L 59.625 0 
L 42 0 
L 42 8.109375 
Q 38.484375 3.125 34.078125 0.84375 
Q 29.6875 -1.421875 23.390625 -1.421875 
Q 14.890625 -1.421875 9.59375 3.53125 
Q 4.296875 8.5 4.296875 16.40625 
Q 4.296875 26.03125 10.90625 30.515625 
Q 17.53125 35.015625 31.6875 35.015625 
L 42 35.015625 
L 42 36.375 
Q 42 40.53125 38.71875 42.453125 
Q 35.453125 44.390625 28.515625 44.390625 
Q 22.90625 44.390625 18.0625 43.265625 
Q 13.234375 42.140625 9.078125 39.890625 
L 9.078125 53.21875 
Q 14.703125 54.59375 20.359375 55.296875 
Q 26.03125 56 31.6875 56 
Q 46.484375 56 53.046875 50.171875 
Q 59.625 44.34375 59.625 31.203125 
z
" id="DejaVuSans-Bold-97"/>
     </defs>
     <use xlink:href="#DejaVuSans-Bold-97"/>
    </g>
   </g>
  </g>
  <g id="axes_2">
   <g id="patch_10">
    <path d="M 252.669324 205.237212 
L 425.215947 205.237212 
L 425.215947 34.206202 
L 252.669324 34.206202 
z
" style="fill:#ffffff;"/>
   </g>
   <g id="matplotlib.axis_3">
    <g id="xtick_7">
     <g id="line2d_7">
      <g>
       <use style="fill:#262626;stroke:#262626;stroke-width:1.25;" x="295.80598" xlink:href="#m93b6dde1c9" y="34.206202"/>
      </g>
     </g>
     <g id="text_16">
      <!-- Progression -->
      <g style="fill:#262626;" transform="translate(273.51448 25.604843)scale(0.077 -0.077)">
       <defs>
        <path d="M 45.40625 27.984375 
Q 45.40625 37.75 41.375 43.109375 
Q 37.359375 48.484375 30.078125 48.484375 
Q 22.859375 48.484375 18.828125 43.109375 
Q 14.796875 37.75 14.796875 27.984375 
Q 14.796875 18.265625 18.828125 12.890625 
Q 22.859375 7.515625 30.078125 7.515625 
Q 37.359375 7.515625 41.375 12.890625 
Q 45.40625 18.265625 45.40625 27.984375 
z
M 54.390625 6.78125 
Q 54.390625 -7.171875 48.1875 -13.984375 
Q 42 -20.796875 29.203125 -20.796875 
Q 24.46875 -20.796875 20.265625 -20.09375 
Q 16.0625 -19.390625 12.109375 -17.921875 
L 12.109375 -9.1875 
Q 16.0625 -11.328125 19.921875 -12.34375 
Q 23.78125 -13.375 27.78125 -13.375 
Q 36.625 -13.375 41.015625 -8.765625 
Q 45.40625 -4.15625 45.40625 5.171875 
L 45.40625 9.625 
Q 42.625 4.78125 38.28125 2.390625 
Q 33.9375 0 27.875 0 
Q 17.828125 0 11.671875 7.65625 
Q 5.515625 15.328125 5.515625 27.984375 
Q 5.515625 40.671875 11.671875 48.328125 
Q 17.828125 56 27.875 56 
Q 33.9375 56 38.28125 53.609375 
Q 42.625 51.21875 45.40625 46.390625 
L 45.40625 54.6875 
L 54.390625 54.6875 
z
" id="DejaVuSans-103"/>
        <path d="M 56.203125 29.59375 
L 56.203125 25.203125 
L 14.890625 25.203125 
Q 15.484375 15.921875 20.484375 11.0625 
Q 25.484375 6.203125 34.421875 6.203125 
Q 39.59375 6.203125 44.453125 7.46875 
Q 49.3125 8.734375 54.109375 11.28125 
L 54.109375 2.78125 
Q 49.265625 0.734375 44.1875 -0.34375 
Q 39.109375 -1.421875 33.890625 -1.421875 
Q 20.796875 -1.421875 13.15625 6.1875 
Q 5.515625 13.8125 5.515625 26.8125 
Q 5.515625 40.234375 12.765625 48.109375 
Q 20.015625 56 32.328125 56 
Q 43.359375 56 49.78125 48.890625 
Q 56.203125 41.796875 56.203125 29.59375 
z
M 47.21875 32.234375 
Q 47.125 39.59375 43.09375 43.984375 
Q 39.0625 48.390625 32.421875 48.390625 
Q 24.90625 48.390625 20.390625 44.140625 
Q 15.875 39.890625 15.1875 32.171875 
z
" id="DejaVuSans-101"/>
        <path d="M 44.28125 53.078125 
L 44.28125 44.578125 
Q 40.484375 46.53125 36.375 47.5 
Q 32.28125 48.484375 27.875 48.484375 
Q 21.1875 48.484375 17.84375 46.4375 
Q 14.5 44.390625 14.5 40.28125 
Q 14.5 37.15625 16.890625 35.375 
Q 19.28125 33.59375 26.515625 31.984375 
L 29.59375 31.296875 
Q 39.15625 29.25 43.1875 25.515625 
Q 47.21875 21.78125 47.21875 15.09375 
Q 47.21875 7.46875 41.1875 3.015625 
Q 35.15625 -1.421875 24.609375 -1.421875 
Q 20.21875 -1.421875 15.453125 -0.5625 
Q 10.6875 0.296875 5.421875 2 
L 5.421875 11.28125 
Q 10.40625 8.6875 15.234375 7.390625 
Q 20.0625 6.109375 24.8125 6.109375 
Q 31.15625 6.109375 34.5625 8.28125 
Q 37.984375 10.453125 37.984375 14.40625 
Q 37.984375 18.0625 35.515625 20.015625 
Q 33.0625 21.96875 24.703125 23.78125 
L 21.578125 24.515625 
Q 13.234375 26.265625 9.515625 29.90625 
Q 5.8125 33.546875 5.8125 39.890625 
Q 5.8125 47.609375 11.28125 51.796875 
Q 16.75 56 26.8125 56 
Q 31.78125 56 36.171875 55.265625 
Q 40.578125 54.546875 44.28125 53.078125 
z
" id="DejaVuSans-115"/>
       </defs>
       <use xlink:href="#DejaVuSans-80"/>
       <use x="58.552734" xlink:href="#DejaVuSans-114"/>
       <use x="97.416016" xlink:href="#DejaVuSans-111"/>
       <use x="158.597656" xlink:href="#DejaVuSans-103"/>
       <use x="222.074219" xlink:href="#DejaVuSans-114"/>
       <use x="260.9375" xlink:href="#DejaVuSans-101"/>
       <use x="322.460938" xlink:href="#DejaVuSans-115"/>
       <use x="374.560547" xlink:href="#DejaVuSans-115"/>
       <use x="426.660156" xlink:href="#DejaVuSans-105"/>
       <use x="454.443359" xlink:href="#DejaVuSans-111"/>
       <use x="515.625" xlink:href="#DejaVuSans-110"/>
      </g>
     </g>
    </g>
    <g id="xtick_8">
     <g id="line2d_8">
      <g>
       <use style="fill:#262626;stroke:#262626;stroke-width:1.25;" x="382.079291" xlink:href="#m93b6dde1c9" y="34.206202"/>
      </g>
     </g>
     <g id="text_17">
      <!-- Viremia -->
      <g style="fill:#262626;" transform="translate(367.418611 25.604843)scale(0.077 -0.077)">
       <defs>
        <path d="M 28.609375 0 
L 0.78125 72.90625 
L 11.078125 72.90625 
L 34.1875 11.53125 
L 57.328125 72.90625 
L 67.578125 72.90625 
L 39.796875 0 
z
" id="DejaVuSans-86"/>
        <path d="M 52 44.1875 
Q 55.375 50.25 60.0625 53.125 
Q 64.75 56 71.09375 56 
Q 79.640625 56 84.28125 50.015625 
Q 88.921875 44.046875 88.921875 33.015625 
L 88.921875 0 
L 79.890625 0 
L 79.890625 32.71875 
Q 79.890625 40.578125 77.09375 44.375 
Q 74.3125 48.1875 68.609375 48.1875 
Q 61.625 48.1875 57.5625 43.546875 
Q 53.515625 38.921875 53.515625 30.90625 
L 53.515625 0 
L 44.484375 0 
L 44.484375 32.71875 
Q 44.484375 40.625 41.703125 44.40625 
Q 38.921875 48.1875 33.109375 48.1875 
Q 26.21875 48.1875 22.15625 43.53125 
Q 18.109375 38.875 18.109375 30.90625 
L 18.109375 0 
L 9.078125 0 
L 9.078125 54.6875 
L 18.109375 54.6875 
L 18.109375 46.1875 
Q 21.1875 51.21875 25.484375 53.609375 
Q 29.78125 56 35.6875 56 
Q 41.65625 56 45.828125 52.96875 
Q 50 49.953125 52 44.1875 
z
" id="DejaVuSans-109"/>
       </defs>
       <use xlink:href="#DejaVuSans-86"/>
       <use x="66.158203" xlink:href="#DejaVuSans-105"/>
       <use x="93.941406" xlink:href="#DejaVuSans-114"/>
       <use x="132.804688" xlink:href="#DejaVuSans-101"/>
       <use x="194.328125" xlink:href="#DejaVuSans-109"/>
       <use x="291.740234" xlink:href="#DejaVuSans-105"/>
       <use x="319.523438" xlink:href="#DejaVuSans-97"/>
      </g>
     </g>
    </g>
    <g id="text_18">
     <!-- Class Prediction -->
     <g style="fill:#262626;" transform="translate(305.695698 15.754046)scale(0.084 -0.084)">
      <defs>
       <path d="M 9.421875 75.984375 
L 18.40625 75.984375 
L 18.40625 0 
L 9.421875 0 
z
" id="DejaVuSans-108"/>
       <path id="DejaVuSans-32"/>
       <path d="M 45.40625 46.390625 
L 45.40625 75.984375 
L 54.390625 75.984375 
L 54.390625 0 
L 45.40625 0 
L 45.40625 8.203125 
Q 42.578125 3.328125 38.25 0.953125 
Q 33.9375 -1.421875 27.875 -1.421875 
Q 17.96875 -1.421875 11.734375 6.484375 
Q 5.515625 14.40625 5.515625 27.296875 
Q 5.515625 40.1875 11.734375 48.09375 
Q 17.96875 56 27.875 56 
Q 33.9375 56 38.25 53.625 
Q 42.578125 51.265625 45.40625 46.390625 
z
M 14.796875 27.296875 
Q 14.796875 17.390625 18.875 11.75 
Q 22.953125 6.109375 30.078125 6.109375 
Q 37.203125 6.109375 41.296875 11.75 
Q 45.40625 17.390625 45.40625 27.296875 
Q 45.40625 37.203125 41.296875 42.84375 
Q 37.203125 48.484375 30.078125 48.484375 
Q 22.953125 48.484375 18.875 42.84375 
Q 14.796875 37.203125 14.796875 27.296875 
z
" id="DejaVuSans-100"/>
      </defs>
      <use xlink:href="#DejaVuSans-67"/>
      <use x="69.824219" xlink:href="#DejaVuSans-108"/>
      <use x="97.607422" xlink:href="#DejaVuSans-97"/>
      <use x="158.886719" xlink:href="#DejaVuSans-115"/>
      <use x="210.986328" xlink:href="#DejaVuSans-115"/>
      <use x="263.085938" xlink:href="#DejaVuSans-32"/>
      <use x="294.873047" xlink:href="#DejaVuSans-80"/>
      <use x="353.425781" xlink:href="#DejaVuSans-114"/>
      <use x="392.289062" xlink:href="#DejaVuSans-101"/>
      <use x="453.8125" xlink:href="#DejaVuSans-100"/>
      <use x="517.289062" xlink:href="#DejaVuSans-105"/>
      <use x="545.072266" xlink:href="#DejaVuSans-99"/>
      <use x="600.052734" xlink:href="#DejaVuSans-116"/>
      <use x="639.261719" xlink:href="#DejaVuSans-105"/>
      <use x="667.044922" xlink:href="#DejaVuSans-111"/>
      <use x="728.226562" xlink:href="#DejaVuSans-110"/>
     </g>
    </g>
   </g>
   <g id="matplotlib.axis_4">
    <g id="ytick_7">
     <g id="text_19">
      <!-- 0.5 -->
      <g style="fill:#262626;" transform="translate(233.423918 192.614337)scale(0.077 -0.077)">
       <defs>
        <path d="M 10.796875 72.90625 
L 49.515625 72.90625 
L 49.515625 64.59375 
L 19.828125 64.59375 
L 19.828125 46.734375 
Q 21.96875 47.46875 24.109375 47.828125 
Q 26.265625 48.1875 28.421875 48.1875 
Q 40.625 48.1875 47.75 41.5 
Q 54.890625 34.8125 54.890625 23.390625 
Q 54.890625 11.625 47.5625 5.09375 
Q 40.234375 -1.421875 26.90625 -1.421875 
Q 22.3125 -1.421875 17.546875 -0.640625 
Q 12.796875 0.140625 7.71875 1.703125 
L 7.71875 11.625 
Q 12.109375 9.234375 16.796875 8.0625 
Q 21.484375 6.890625 26.703125 6.890625 
Q 35.15625 6.890625 40.078125 11.328125 
Q 45.015625 15.765625 45.015625 23.390625 
Q 45.015625 31 40.078125 35.4375 
Q 35.15625 39.890625 26.703125 39.890625 
Q 22.75 39.890625 18.8125 39.015625 
Q 14.890625 38.140625 10.796875 36.28125 
z
" id="DejaVuSans-53"/>
       </defs>
       <use xlink:href="#DejaVuSans-48"/>
       <use x="63.623047" xlink:href="#DejaVuSans-46"/>
       <use x="95.410156" xlink:href="#DejaVuSans-53"/>
      </g>
     </g>
    </g>
    <g id="ytick_8">
     <g id="text_20">
      <!-- 0.6 -->
      <g style="fill:#262626;" transform="translate(233.423918 161.517789)scale(0.077 -0.077)">
       <use xlink:href="#DejaVuSans-48"/>
       <use x="63.623047" xlink:href="#DejaVuSans-46"/>
       <use x="95.410156" xlink:href="#DejaVuSans-54"/>
      </g>
     </g>
    </g>
    <g id="ytick_9">
     <g id="text_21">
      <!-- 0.7 -->
      <g style="fill:#262626;" transform="translate(233.423918 130.421242)scale(0.077 -0.077)">
       <use xlink:href="#DejaVuSans-48"/>
       <use x="63.623047" xlink:href="#DejaVuSans-46"/>
       <use x="95.410156" xlink:href="#DejaVuSans-55"/>
      </g>
     </g>
    </g>
    <g id="ytick_10">
     <g id="text_22">
      <!-- 0.8 -->
      <g style="fill:#262626;" transform="translate(233.423918 99.324695)scale(0.077 -0.077)">
       <use xlink:href="#DejaVuSans-48"/>
       <use x="63.623047" xlink:href="#DejaVuSans-46"/>
       <use x="95.410156" xlink:href="#DejaVuSans-56"/>
      </g>
     </g>
    </g>
    <g id="ytick_11">
     <g id="text_23">
      <!-- 0.9 -->
      <g style="fill:#262626;" transform="translate(233.423918 68.228148)scale(0.077 -0.077)">
       <defs>
        <path d="M 10.984375 1.515625 
L 10.984375 10.5 
Q 14.703125 8.734375 18.5 7.8125 
Q 22.3125 6.890625 25.984375 6.890625 
Q 35.75 6.890625 40.890625 13.453125 
Q 46.046875 20.015625 46.78125 33.40625 
Q 43.953125 29.203125 39.59375 26.953125 
Q 35.25 24.703125 29.984375 24.703125 
Q 19.046875 24.703125 12.671875 31.3125 
Q 6.296875 37.9375 6.296875 49.421875 
Q 6.296875 60.640625 12.9375 67.421875 
Q 19.578125 74.21875 30.609375 74.21875 
Q 43.265625 74.21875 49.921875 64.515625 
Q 56.59375 54.828125 56.59375 36.375 
Q 56.59375 19.140625 48.40625 8.859375 
Q 40.234375 -1.421875 26.421875 -1.421875 
Q 22.703125 -1.421875 18.890625 -0.6875 
Q 15.09375 0.046875 10.984375 1.515625 
z
M 30.609375 32.421875 
Q 37.25 32.421875 41.125 36.953125 
Q 45.015625 41.5 45.015625 49.421875 
Q 45.015625 57.28125 41.125 61.84375 
Q 37.25 66.40625 30.609375 66.40625 
Q 23.96875 66.40625 20.09375 61.84375 
Q 16.21875 57.28125 16.21875 49.421875 
Q 16.21875 41.5 20.09375 36.953125 
Q 23.96875 32.421875 30.609375 32.421875 
z
" id="DejaVuSans-57"/>
       </defs>
       <use xlink:href="#DejaVuSans-48"/>
       <use x="63.623047" xlink:href="#DejaVuSans-46"/>
       <use x="95.410156" xlink:href="#DejaVuSans-57"/>
      </g>
     </g>
    </g>
    <g id="ytick_12">
     <g id="text_24">
      <!-- 1.0 -->
      <g style="fill:#262626;" transform="translate(233.423918 37.1316)scale(0.077 -0.077)">
       <use xlink:href="#DejaVuSans-49"/>
       <use x="63.623047" xlink:href="#DejaVuSans-46"/>
       <use x="95.410156" xlink:href="#DejaVuSans-48"/>
      </g>
     </g>
    </g>
    <g id="text_25">
     <!-- Accuracy -->
     <g style="fill:#262626;" transform="translate(227.676981 138.897332)rotate(-90)scale(0.084 -0.084)">
      <use xlink:href="#DejaVuSans-65"/>
      <use x="66.658203" xlink:href="#DejaVuSans-99"/>
      <use x="121.638672" xlink:href="#DejaVuSans-99"/>
      <use x="176.619141" xlink:href="#DejaVuSans-117"/>
      <use x="239.998047" xlink:href="#DejaVuSans-114"/>
      <use x="281.111328" xlink:href="#DejaVuSans-97"/>
      <use x="342.390625" xlink:href="#DejaVuSans-99"/>
      <use x="397.371094" xlink:href="#DejaVuSans-121"/>
     </g>
    </g>
   </g>
   <g id="PathCollection_5">
    <path clip-path="url(#p7b5158d578)" d="M 295.80598 116.534129 
C 296.601589 116.534129 297.36472 116.21803 297.9273 115.655449 
C 298.489881 115.092868 298.80598 114.329738 298.80598 113.534129 
C 298.80598 112.738519 298.489881 111.975389 297.9273 111.412808 
C 297.36472 110.850227 296.601589 110.534129 295.80598 110.534129 
C 295.010371 110.534129 294.24724 110.850227 293.68466 111.412808 
C 293.122079 111.975389 292.80598 112.738519 292.80598 113.534129 
C 292.80598 114.329738 293.122079 115.092868 293.68466 115.655449 
C 294.24724 116.21803 295.010371 116.534129 295.80598 116.534129 
z
" style="fill:#4c72b0;stroke:#ffffff;stroke-width:0.48;"/>
    <path clip-path="url(#p7b5158d578)" d="M 294.30598 114.111641 
L 295.80598 112.611641 
L 297.30598 114.111641 
L 298.80598 112.611641 
L 297.30598 111.111641 
L 298.80598 109.611641 
L 297.30598 108.111641 
L 295.80598 109.611641 
L 294.30598 108.111641 
L 292.80598 109.611641 
L 294.30598 111.111641 
L 292.80598 112.611641 
z
" style="fill:#dd8452;stroke:#ffffff;stroke-width:0.48;"/>
    <path clip-path="url(#p7b5158d578)" d="M 293.68466 127.494742 
L 293.68466 131.737383 
L 297.9273 131.737383 
L 297.9273 127.494742 
z
" style="fill:#55a868;stroke:#ffffff;stroke-width:0.48;"/>
    <path clip-path="url(#p7b5158d578)" d="M 294.80598 183.235588 
L 296.80598 183.235588 
L 296.80598 181.235588 
L 298.80598 181.235588 
L 298.80598 179.235588 
L 296.80598 179.235588 
L 296.80598 177.235588 
L 294.80598 177.235588 
L 294.80598 179.235588 
L 292.80598 179.235588 
L 292.80598 181.235588 
L 294.80598 181.235588 
z
" style="fill:#c44e52;stroke:#ffffff;stroke-width:0.48;"/>
    <path clip-path="url(#p7b5158d578)" d="M 382.079291 145.092182 
C 382.8749 145.092182 383.638031 144.776083 384.200611 144.213502 
C 384.763192 143.650922 385.079291 142.887791 385.079291 142.092182 
C 385.079291 141.296573 384.763192 140.533443 384.200611 139.970862 
C 383.638031 139.408281 382.8749 139.092182 382.079291 139.092182 
C 381.283682 139.092182 380.520552 139.408281 379.957971 139.970862 
C 379.39539 140.533443 379.079291 141.296573 379.079291 142.092182 
C 379.079291 142.887791 379.39539 143.650922 379.957971 144.213502 
C 380.520552 144.776083 381.283682 145.092182 382.079291 145.092182 
z
" style="fill:#4c72b0;stroke:#ffffff;stroke-width:0.48;"/>
    <path clip-path="url(#p7b5158d578)" d="M 380.579291 134.17393 
L 382.079291 132.67393 
L 383.579291 134.17393 
L 385.079291 132.67393 
L 383.579291 131.17393 
L 385.079291 129.67393 
L 383.579291 128.17393 
L 382.079291 129.67393 
L 380.579291 128.17393 
L 379.079291 129.67393 
L 380.579291 131.17393 
L 379.079291 132.67393 
z
" style="fill:#dd8452;stroke:#ffffff;stroke-width:0.48;"/>
    <path clip-path="url(#p7b5158d578)" d="M 379.957971 106.292551 
L 379.957971 110.535192 
L 384.200611 110.535192 
L 384.200611 106.292551 
z
" style="fill:#55a868;stroke:#ffffff;stroke-width:0.48;"/>
    <path clip-path="url(#p7b5158d578)" d="M 381.079291 190.107925 
L 383.079291 190.107925 
L 383.079291 188.107925 
L 385.079291 188.107925 
L 385.079291 186.107925 
L 383.079291 186.107925 
L 383.079291 184.107925 
L 381.079291 184.107925 
L 381.079291 186.107925 
L 379.079291 186.107925 
L 379.079291 188.107925 
L 381.079291 188.107925 
z
" style="fill:#c44e52;stroke:#ffffff;stroke-width:0.48;"/>
   </g>
   <g id="PathCollection_6"/>
   <g id="PathCollection_7"/>
   <g id="PathCollection_8"/>
   <g id="PathCollection_9"/>
   <g id="patch_11">
    <path clip-path="url(#p7b5158d578)" d="M 252.669324 205.237212 
L 252.669324 34.206202 
L 338.942636 34.206202 
L 338.942636 205.237212 
z
" style="fill:#808080;opacity:0.1;stroke:#808080;stroke-linejoin:miter;"/>
   </g>
   <g id="patch_12">
    <path d="M 252.669324 205.237212 
L 252.669324 34.206202 
" style="fill:none;stroke:#cccccc;stroke-linecap:square;stroke-linejoin:miter;stroke-width:0.6;"/>
   </g>
   <g id="patch_13">
    <path d="M 425.215947 205.237212 
L 425.215947 34.206202 
" style="fill:none;stroke:#cccccc;stroke-linecap:square;stroke-linejoin:miter;stroke-width:0.6;"/>
   </g>
   <g id="patch_14">
    <path d="M 252.669324 205.237212 
L 425.215947 205.237212 
" style="fill:none;stroke:#cccccc;stroke-linecap:square;stroke-linejoin:miter;stroke-width:0.6;"/>
   </g>
   <g id="patch_15">
    <path d="M 252.669324 34.206202 
L 425.215947 34.206202 
" style="fill:none;stroke:#cccccc;stroke-linecap:square;stroke-linejoin:miter;stroke-width:0.6;"/>
   </g>
   <g id="text_26">
    <!-- b -->
    <g style="fill:#262626;" transform="translate(218.16 12.1575)scale(0.16 -0.16)">
     <defs>
      <path d="M 37.5 11.28125 
Q 43.109375 11.28125 46.0625 15.375 
Q 49.03125 19.484375 49.03125 27.296875 
Q 49.03125 35.109375 46.0625 39.203125 
Q 43.109375 43.3125 37.5 43.3125 
Q 31.890625 43.3125 28.875 39.1875 
Q 25.875 35.0625 25.875 27.296875 
Q 25.875 19.53125 28.875 15.40625 
Q 31.890625 11.28125 37.5 11.28125 
z
M 25.875 46.6875 
Q 29.5 51.46875 33.890625 53.734375 
Q 38.28125 56 44 56 
Q 54.109375 56 60.59375 47.96875 
Q 67.09375 39.9375 67.09375 27.296875 
Q 67.09375 14.65625 60.59375 6.609375 
Q 54.109375 -1.421875 44 -1.421875 
Q 38.28125 -1.421875 33.890625 0.84375 
Q 29.5 3.125 25.875 7.90625 
L 25.875 0 
L 8.40625 0 
L 8.40625 75.984375 
L 25.875 75.984375 
z
" id="DejaVuSans-Bold-98"/>
     </defs>
     <use xlink:href="#DejaVuSans-Bold-98"/>
    </g>
   </g>
   <g id="legend_1">
    <g id="patch_16">
     <path d="M 314.933759 93.789952 
L 419.265947 93.789952 
Q 420.965947 93.789952 420.965947 92.089952 
L 420.965947 40.156202 
Q 420.965947 38.456202 419.265947 38.456202 
L 314.933759 38.456202 
Q 313.233759 38.456202 313.233759 40.156202 
L 313.233759 92.089952 
Q 313.233759 93.789952 314.933759 93.789952 
z
" style="fill:#eaeaf2;opacity:0.5;stroke:#cccccc;stroke-linejoin:miter;"/>
    </g>
    <g id="text_27">
     <!-- Model -->
     <g style="fill:#262626;" transform="translate(352.086572 49.029639)scale(0.1 -0.1)">
      <use xlink:href="#DejaVuSans-77"/>
      <use x="86.279297" xlink:href="#DejaVuSans-111"/>
      <use x="147.460938" xlink:href="#DejaVuSans-100"/>
      <use x="210.9375" xlink:href="#DejaVuSans-101"/>
      <use x="272.460938" xlink:href="#DejaVuSans-108"/>
     </g>
    </g>
    <g id="PathCollection_10">
     <defs>
      <path d="M 0 2.1 
C 0.556927 2.1 1.091118 1.878731 1.484924 1.484924 
C 1.878731 1.091118 2.1 0.556927 2.1 0 
C 2.1 -0.556927 1.878731 -1.091118 1.484924 -1.484924 
C 1.091118 -1.878731 0.556927 -2.1 0 -2.1 
C -0.556927 -2.1 -1.091118 -1.878731 -1.484924 -1.484924 
C -1.878731 -1.091118 -2.1 -0.556927 -2.1 0 
C -2.1 0.556927 -1.878731 1.091118 -1.484924 1.484924 
C -1.091118 1.878731 -0.556927 2.1 0 2.1 
z
" id="m2676cff358" style="stroke:#4c72b0;"/>
     </defs>
     <g>
      <use style="fill:#4c72b0;stroke:#4c72b0;" x="318.333759" xlink:href="#m2676cff358" y="57.036749"/>
     </g>
    </g>
    <g id="text_28">
     <!-- Alter et al -->
     <g style="fill:#262626;" transform="translate(324.708759 59.267999)scale(0.085 -0.085)">
      <use xlink:href="#DejaVuSans-65"/>
      <use x="68.408203" xlink:href="#DejaVuSans-108"/>
      <use x="96.191406" xlink:href="#DejaVuSans-116"/>
      <use x="135.400391" xlink:href="#DejaVuSans-101"/>
      <use x="196.923828" xlink:href="#DejaVuSans-114"/>
      <use x="238.037109" xlink:href="#DejaVuSans-32"/>
      <use x="269.824219" xlink:href="#DejaVuSans-101"/>
      <use x="331.347656" xlink:href="#DejaVuSans-116"/>
      <use x="370.556641" xlink:href="#DejaVuSans-32"/>
      <use x="402.34375" xlink:href="#DejaVuSans-97"/>
      <use x="463.623047" xlink:href="#DejaVuSans-108"/>
     </g>
    </g>
    <g id="PathCollection_11">
     <defs>
      <path d="M -1.05 2.1 
L 0 1.05 
L 1.05 2.1 
L 2.1 1.05 
L 1.05 0 
L 2.1 -1.05 
L 1.05 -2.1 
L 0 -1.05 
L -1.05 -2.1 
L -2.1 -1.05 
L -1.05 0 
L -2.1 1.05 
z
" id="md2960e5686" style="stroke:#dd8452;"/>
     </defs>
     <g>
      <use style="fill:#dd8452;stroke:#dd8452;" x="318.333759" xlink:href="#md2960e5686" y="66.963155"/>
     </g>
    </g>
    <g id="text_29">
     <!-- TMTF (Alter cases) -->
     <g style="fill:#262626;" transform="translate(324.708759 69.194405)scale(0.085 -0.085)">
      <defs>
       <path d="M -0.296875 72.90625 
L 61.375 72.90625 
L 61.375 64.59375 
L 35.5 64.59375 
L 35.5 0 
L 25.59375 0 
L 25.59375 64.59375 
L -0.296875 64.59375 
z
" id="DejaVuSans-84"/>
       <path d="M 31 75.875 
Q 24.46875 64.65625 21.28125 53.65625 
Q 18.109375 42.671875 18.109375 31.390625 
Q 18.109375 20.125 21.3125 9.0625 
Q 24.515625 -2 31 -13.1875 
L 23.1875 -13.1875 
Q 15.875 -1.703125 12.234375 9.375 
Q 8.59375 20.453125 8.59375 31.390625 
Q 8.59375 42.28125 12.203125 53.3125 
Q 15.828125 64.359375 23.1875 75.875 
z
" id="DejaVuSans-40"/>
       <path d="M 8.015625 75.875 
L 15.828125 75.875 
Q 23.140625 64.359375 26.78125 53.3125 
Q 30.421875 42.28125 30.421875 31.390625 
Q 30.421875 20.453125 26.78125 9.375 
Q 23.140625 -1.703125 15.828125 -13.1875 
L 8.015625 -13.1875 
Q 14.5 -2 17.703125 9.0625 
Q 20.90625 20.125 20.90625 31.390625 
Q 20.90625 42.671875 17.703125 53.65625 
Q 14.5 64.65625 8.015625 75.875 
z
" id="DejaVuSans-41"/>
      </defs>
      <use xlink:href="#DejaVuSans-84"/>
      <use x="61.083984" xlink:href="#DejaVuSans-77"/>
      <use x="147.363281" xlink:href="#DejaVuSans-84"/>
      <use x="208.447266" xlink:href="#DejaVuSans-70"/>
      <use x="265.966797" xlink:href="#DejaVuSans-32"/>
      <use x="297.753906" xlink:href="#DejaVuSans-40"/>
      <use x="336.767578" xlink:href="#DejaVuSans-65"/>
      <use x="405.175781" xlink:href="#DejaVuSans-108"/>
      <use x="432.958984" xlink:href="#DejaVuSans-116"/>
      <use x="472.167969" xlink:href="#DejaVuSans-101"/>
      <use x="533.691406" xlink:href="#DejaVuSans-114"/>
      <use x="574.804688" xlink:href="#DejaVuSans-32"/>
      <use x="606.591797" xlink:href="#DejaVuSans-99"/>
      <use x="661.572266" xlink:href="#DejaVuSans-97"/>
      <use x="722.851562" xlink:href="#DejaVuSans-115"/>
      <use x="774.951172" xlink:href="#DejaVuSans-101"/>
      <use x="836.474609" xlink:href="#DejaVuSans-115"/>
      <use x="888.574219" xlink:href="#DejaVuSans-41"/>
     </g>
    </g>
    <g id="PathCollection_12">
     <defs>
      <path d="M -1.484924 -1.484924 
L -1.484924 1.484924 
L 1.484924 1.484924 
L 1.484924 -1.484924 
z
" id="mc13703b715" style="stroke:#55a868;"/>
     </defs>
     <g>
      <use style="fill:#55a868;stroke:#55a868;" x="318.333759" xlink:href="#mc13703b715" y="76.889561"/>
     </g>
    </g>
    <g id="text_30">
     <!-- TMTF (Alter excluded) -->
     <g style="fill:#262626;" transform="translate(324.708759 79.120811)scale(0.085 -0.085)">
      <defs>
       <path d="M 54.890625 54.6875 
L 35.109375 28.078125 
L 55.90625 0 
L 45.3125 0 
L 29.390625 21.484375 
L 13.484375 0 
L 2.875 0 
L 24.125 28.609375 
L 4.6875 54.6875 
L 15.28125 54.6875 
L 29.78125 35.203125 
L 44.28125 54.6875 
z
" id="DejaVuSans-120"/>
      </defs>
      <use xlink:href="#DejaVuSans-84"/>
      <use x="61.083984" xlink:href="#DejaVuSans-77"/>
      <use x="147.363281" xlink:href="#DejaVuSans-84"/>
      <use x="208.447266" xlink:href="#DejaVuSans-70"/>
      <use x="265.966797" xlink:href="#DejaVuSans-32"/>
      <use x="297.753906" xlink:href="#DejaVuSans-40"/>
      <use x="336.767578" xlink:href="#DejaVuSans-65"/>
      <use x="405.175781" xlink:href="#DejaVuSans-108"/>
      <use x="432.958984" xlink:href="#DejaVuSans-116"/>
      <use x="472.167969" xlink:href="#DejaVuSans-101"/>
      <use x="533.691406" xlink:href="#DejaVuSans-114"/>
      <use x="574.804688" xlink:href="#DejaVuSans-32"/>
      <use x="606.591797" xlink:href="#DejaVuSans-101"/>
      <use x="666.365234" xlink:href="#DejaVuSans-120"/>
      <use x="723.794922" xlink:href="#DejaVuSans-99"/>
      <use x="778.775391" xlink:href="#DejaVuSans-108"/>
      <use x="806.558594" xlink:href="#DejaVuSans-117"/>
      <use x="869.9375" xlink:href="#DejaVuSans-100"/>
      <use x="933.414062" xlink:href="#DejaVuSans-101"/>
      <use x="994.9375" xlink:href="#DejaVuSans-100"/>
      <use x="1058.414062" xlink:href="#DejaVuSans-41"/>
     </g>
    </g>
    <g id="PathCollection_13">
     <defs>
      <path d="M -0.7 2.1 
L 0.7 2.1 
L 0.7 0.7 
L 2.1 0.7 
L 2.1 -0.7 
L 0.7 -0.7 
L 0.7 -2.1 
L -0.7 -2.1 
L -0.7 -0.7 
L -2.1 -0.7 
L -2.1 0.7 
L -0.7 0.7 
z
" id="m9771568bf0" style="stroke:#c44e52;"/>
     </defs>
     <g>
      <use style="fill:#c44e52;stroke:#c44e52;" x="318.333759" xlink:href="#m9771568bf0" y="86.815968"/>
     </g>
    </g>
    <g id="text_31">
     <!-- Randomized -->
     <g style="fill:#262626;" transform="translate(324.708759 89.047218)scale(0.085 -0.085)">
      <defs>
       <path d="M 44.390625 34.1875 
Q 47.5625 33.109375 50.5625 29.59375 
Q 53.5625 26.078125 56.59375 19.921875 
L 66.609375 0 
L 56 0 
L 46.6875 18.703125 
Q 43.0625 26.03125 39.671875 28.421875 
Q 36.28125 30.8125 30.421875 30.8125 
L 19.671875 30.8125 
L 19.671875 0 
L 9.8125 0 
L 9.8125 72.90625 
L 32.078125 72.90625 
Q 44.578125 72.90625 50.734375 67.671875 
Q 56.890625 62.453125 56.890625 51.90625 
Q 56.890625 45.015625 53.6875 40.46875 
Q 50.484375 35.9375 44.390625 34.1875 
z
M 19.671875 64.796875 
L 19.671875 38.921875 
L 32.078125 38.921875 
Q 39.203125 38.921875 42.84375 42.21875 
Q 46.484375 45.515625 46.484375 51.90625 
Q 46.484375 58.296875 42.84375 61.546875 
Q 39.203125 64.796875 32.078125 64.796875 
z
" id="DejaVuSans-82"/>
       <path d="M 5.515625 54.6875 
L 48.1875 54.6875 
L 48.1875 46.484375 
L 14.40625 7.171875 
L 48.1875 7.171875 
L 48.1875 0 
L 4.296875 0 
L 4.296875 8.203125 
L 38.09375 47.515625 
L 5.515625 47.515625 
z
" id="DejaVuSans-122"/>
      </defs>
      <use xlink:href="#DejaVuSans-82"/>
      <use x="67.232422" xlink:href="#DejaVuSans-97"/>
      <use x="128.511719" xlink:href="#DejaVuSans-110"/>
      <use x="191.890625" xlink:href="#DejaVuSans-100"/>
      <use x="255.367188" xlink:href="#DejaVuSans-111"/>
      <use x="316.548828" xlink:href="#DejaVuSans-109"/>
      <use x="413.960938" xlink:href="#DejaVuSans-105"/>
      <use x="441.744141" xlink:href="#DejaVuSans-122"/>
      <use x="494.234375" xlink:href="#DejaVuSans-101"/>
      <use x="555.757812" xlink:href="#DejaVuSans-100"/>
     </g>
    </g>
   </g>
  </g>
 </g>
 <defs>
  <clipPath id="p3789f85a6c">
   <rect height="171.03101" width="172.546622" x="34.509324" y="34.206202"/>
  </clipPath>
  <clipPath id="p7b5158d578">
   <rect height="171.03101" width="172.546622" x="252.669324" y="34.206202"/>
  </clipPath>
 </defs>
</svg>
